/* XPM */
static char * abortraceDisabled_xpm[] = {
"16 16 6 1",
" 	c None",
".	c #9D9D9D",
"+	c #E99D9D",
"@	c #E9E99D",
"#	c #E9E9E9",
"$	c #C3C39D",
"    .++++++.    ",
"  ..++++++++..  ",
" .+++......+++. ",
" .++.@@@@@.+++. ",
".++.@##@@.+++++.",
"++.@@##@.+++..++",
"++.@@@..+++.$.++",
"++.@@.++++.@$.++",
"++.@.++++.@$$.++",
"++..+++.@@$$$.++",
".+++++.@$$$$.++.",
" .+++.$$$$..++. ",
" .+++......+++. ",
"  ..++++++++..  ",
"   ..++++++.    ",
"                "};
