/* XPM */
static char * annotSelected_xpm[] = {
"16 16 44 1",
" 	c None",
".	c #FFFFFF",
"+	c #EBEBFF",
"@	c #0707FF",
"#	c #A4A4FF",
"$	c #8888FF",
"%	c #0000FF",
"&	c #3E3EFF",
"*	c #FDFDFF",
"=	c #2121FF",
"-	c #D8D8FF",
";	c #B5B5FF",
">	c #1212FF",
",	c #7272FF",
"'	c #4B4BFF",
")	c #B2B2FF",
"!	c #0909FF",
"~	c #1313FF",
"{	c #F8F8FF",
"]	c #E0E0FF",
"^	c #2D2DFF",
"/	c #5E5EFF",
"(	c #A5A5FF",
"_	c #7878FF",
":	c #9191FF",
"<	c #C3C3FF",
"[	c #3F3FFF",
"}	c #F9F9FF",
"|	c #1F1FFF",
"1	c #EFEFFF",
"2	c #2929FF",
"3	c #3939FF",
"4	c #CACAFF",
"5	c #0606FF",
"6	c #F7F7FF",
"7	c #F2F2FF",
"8	c #8484FF",
"9	c #2323FF",
"0	c #FEFEFF",
"a	c #5D5DFF",
"b	c #5353FF",
"c	c #1717FF",
"d	c #B3B3FF",
"e	c #2B2BFF",
"................",
"................",
"......+@#.......",
"......$%&.......",
".....*=%%-......",
".....;>%%,......",
".....')!%~{.....",
"....]^./%%(.....",
"...._:.<%%[.....",
"...}|1..2%%-....",
"...(%%%%%%%,....",
"...34...+5%~6...",
".7897...0a%%b+..",
".c%%%d..e%%%%@..",
"................",
"................"};
