/* XPM */
static const char * annotHidden_xpm[] = {
"16 16 43 1",
" 	c None",
".	c #FFFFFF",
"+	c #EBEBEB",
"@	c #070707",
"#	c #A4A4A4",
"$	c #888888",
"%	c #000000",
"&	c #3E3E3E",
"*	c #FDFDFD",
"=	c #212121",
"-	c #D8D8D8",
";	c #B5B5B5",
">	c #121212",
",	c #727272",
"'	c #4B4B4B",
")	c #B2B2B2",
"!	c #131313",
"~	c #F8F8F8",
"{	c #E0E0E0",
"]	c #2D2D2D",
"^	c #5E5E5E",
"/	c #A5A5A5",
"(	c #787878",
"_	c #919191",
":	c #C3C3C3",
"<	c #3F3F3F",
"[	c #F9F9F9",
"}	c #1F1F1F",
"|	c #EFEFEF",
"1	c #292929",
"2	c #393939",
"3	c #CACACA",
"4	c #060606",
"5	c #F7F7F7",
"6	c #F2F2F2",
"7	c #848484",
"8	c #232323",
"9	c #FEFEFE",
"0	c #5D5D5D",
"a	c #535353",
"b	c #171717",
"c	c #B3B3B3",
"d	c #2B2B2B",
"................",
"................",
"......+@#.......",
"......$%&.......",
".....*=.%-......",
".....;>..,......",
".....')%.!~.....",
"....{].^../.....",
"....(_.:..<.....",
"...[}|..1.%-....",
".../%%%%%..,....",
"...23...+4.!5...",
".6786...90..a+..",
".b%%%c..d%%%%@..",
"................",
"................"};
