/* XPM */
static char * annotHiddenSelected_xpm[] = {
"16 16 44 1",
" 	c None",
".	c #FFFFFF",
"+	c #EBEBEB",
"@	c #070707",
"#	c #A4A4A4",
"$	c #888888",
"%	c #000000",
"&	c #3E3E3E",
"*	c #FDFDFD",
"=	c #212121",
"-	c #A3A3FF",
";	c #D8D8D8",
">	c #B5B5B5",
",	c #121212",
"'	c #727272",
")	c #4B4B4B",
"!	c #B2B2B2",
"~	c #131313",
"{	c #F8F8F8",
"]	c #E0E0E0",
"^	c #2D2D2D",
"/	c #5E5E5E",
"(	c #A5A5A5",
"_	c #787878",
":	c #919191",
"<	c #C3C3C3",
"[	c #3F3F3F",
"}	c #F9F9F9",
"|	c #1F1F1F",
"1	c #EFEFEF",
"2	c #292929",
"3	c #393939",
"4	c #CACACA",
"5	c #060606",
"6	c #F7F7F7",
"7	c #F2F2F2",
"8	c #848484",
"9	c #232323",
"0	c #FEFEFE",
"a	c #5D5D5D",
"b	c #535353",
"c	c #171717",
"d	c #B3B3B3",
"e	c #2B2B2B",
"................",
"................",
"......+@#.......",
"......$%&.......",
".....*=-%;......",
".....>,--'......",
".....)!%-~{.....",
"....]^./--(.....",
"...._:.<--[.....",
"...}|1..2-%;....",
"...(%%%%%--'....",
"...34...+5-~6...",
".7897...0a--b+..",
".c%%%d..e%%%%@..",
"................",
"................"};
