/* XPM */
static char * applyDisabled_xpm[] = {
"16 16 2 1",
" 	c None",
".	c #9DC39D",
"               .",
"              ..",
"              ..",
"             ...",
"             .. ",
"            ..  ",
"           ...  ",
" ...       ..   ",
"  ...     ..    ",
"    ..   ..     ",
"     .. ..      ",
"      ....      ",
"      ...       ",
"      ...       ",
"       .        ",
"                "};
