/* XPM */
static const char * atomHidden_xpm[] = {
"16 16 82 1",
" 	c None",
".	c #FFFFFF",
"+	c #FEFEFE",
"@	c #FEFEFD",
"#	c #FDFDFC",
"$	c #FDFDFD",
"%	c #FEFEFF",
"&	c #FCFCF9",
"*	c #FCFCF0",
"=	c #FCFCE7",
"-	c #FCFCE5",
";	c #FAFAEA",
">	c #FAFAF5",
",	c #FBFBF7",
"'	c #FAFAE2",
")	c #FFFFCF",
"!	c #FFFFC2",
"~	c #FFFFC5",
"{	c #FFFFC8",
"]	c #F6F6DA",
"^	c #F7F7F1",
"/	c #F9F9E7",
"(	c #FEFEC9",
"_	c #FFFFBF",
":	c #FFFFCA",
"<	c #F9F9BF",
"[	c #EEEED9",
"}	c #F6F6F3",
"|	c #F8F8D9",
"1	c #FFFFC6",
"2	c #FFFFCB",
"3	c #FFFFC7",
"4	c #F8F8BF",
"5	c #E9E9C1",
"6	c #ECECE6",
"7	c #FCFCFC",
"8	c #F8F8F2",
"9	c #F4F4CF",
"0	c #FCFCBF",
"a	c #F3F3BF",
"b	c #E7E7BF",
"c	c #E5E5DD",
"d	c #FAFAFA",
"e	c #EFEFCD",
"f	c #F6F6BF",
"g	c #FAFABF",
"h	c #FBFBBF",
"i	c #F5F5BF",
"j	c #EEEEBF",
"k	c #E1E1BF",
"l	c #E4E4DF",
"m	c #F9F9F5",
"n	c #EDEDD6",
"o	c #F2F2BF",
"p	c #F1F1BF",
"q	c #EDEDBF",
"r	c #E5E5BF",
"s	c #D9D9C5",
"t	c #E9E9E8",
"u	c #FCFCFB",
"v	c #F2F2E8",
"w	c #EAEACC",
"x	c #EAEABF",
"y	c #E8E8BF",
"z	c #E2E2BF",
"A	c #DBDBBF",
"B	c #E1E1DD",
"C	c #F5F5F5",
"D	c #FBFBF8",
"E	c #F0F0E6",
"F	c #E7E7D1",
"G	c #E2E2C4",
"H	c #DFDFC3",
"I	c #DEDECF",
"J	c #E4E4E0",
"K	c #F4F4F4",
"L	c #FBFBFA",
"M	c #F5F5F2",
"N	c #F0F0EB",
"O	c #EFEFEB",
"P	c #F3F3F1",
"Q	c #F9F9F8",
".+++++++++++++++",
".+.+...........+",
".+....+@#$%....+",
".+..+&*=-;>$...+",
".+.%,')!~{]^$..+",
"...#/(_{):<[}+.+",
"...,|__1234567.+",
"...890__!0abcd.+",
"..+^efghgijkld.+",
".++mnjoapqrst7.+",
".+.uvwxxyzABC+.+",
".+..DEFGHIJK+..+",
".+...LMNOPQ+..++",
".+....+$$+.....+",
".+++++++++++++++",
"................"};
