/* XPM */
static const char * atom_xpm[] = {
"16 16 95 2",
"  	c None",
". 	c #FFFFFF",
"+ 	c #FCFCFC",
"@ 	c #FEFEFE",
"# 	c #FCFCF8",
"$ 	c #FBFBF7",
"% 	c #FBFBF9",
"& 	c #FEFEFF",
"* 	c #F7F7E8",
"= 	c #F6F6C5",
"- 	c #F7F7A3",
"; 	c #F4F49A",
"> 	c #ECECAF",
", 	c #EFEFD9",
"' 	c #F3F3E0",
") 	c #EFEF8E",
"! 	c #FFFF40",
"~ 	c #FFFF0D",
"{ 	c #FFFF19",
"] 	c #FFFF27",
"^ 	c #DFDF6F",
"/ 	c #E3E3C8",
"( 	c #FAFAF9",
"_ 	c #FAFAF5",
": 	c #E9E9A2",
"< 	c #FCFC28",
"[ 	c #FFFF00",
"} 	c #FFFF25",
"| 	c #FFFF42",
"1 	c #FFFF2E",
"2 	c #E8E800",
"3 	c #BEBE6B",
"4 	c #DDDDD2",
"5 	c #F3F3E3",
"6 	c #E4E46B",
"7 	c #FFFF01",
"8 	c #FFFF1C",
"9 	c #FFFF33",
"0 	c #FFFF21",
"a 	c #E4E400",
"b 	c #ABAB09",
"c 	c #B5B59D",
"d 	c #F5F5F4",
"e 	c #E6E6CD",
"f 	c #D6D642",
"g 	c #F5F500",
"h 	c #F7F701",
"i 	c #D3D300",
"j 	c #A0A000",
"k 	c #9B9B7B",
"l 	c #EDEDEC",
"m 	c #E0E0C8",
"n 	c #C1C139",
"o 	c #DCDC00",
"p 	c #EDED00",
"q 	c #F3F300",
"r 	c #DBDB00",
"s 	c #BCBC00",
"t 	c #898900",
"u 	c #949480",
"v 	c #EEEEEE",
"w 	c #E8E8D9",
"x 	c #B9B95C",
"y 	c #BFBF00",
"z 	c #CECE00",
"A 	c #CBCB00",
"B 	c #B8B800",
"C 	c #989800",
"D 	c #6B6B19",
"E 	c #ABABA4",
"F 	c #F6F6F7",
"G 	c #F6F6F2",
"H 	c #CDCDA4",
"I 	c #AEAE34",
"J 	c #AEAE00",
"K 	c #A4A400",
"L 	c #8F8F00",
"M 	c #707001",
"N 	c #8A8A7A",
"O 	c #DADAD9",
"P 	c #F0F0E7",
"Q 	c #C6C69E",
"R 	c #A1A14B",
"S 	c #8F8F14",
"T 	c #838312",
"U 	c #7C7C40",
"V 	c #969684",
"W 	c #D6D6D4",
"X 	c #F3F3EE",
"Y 	c #D9D9CC",
"Z 	c #C5C5B1",
"` 	c #C2C2B1",
" .	c #D1D1C9",
"..	c #E9E9E7",
"+.	c #FBFBFB",
". + @ @ @ @ @ @ @ @ @ @ @ @ @ + ",
". @ . @ . . . . . . . . . . . @ ",
". @ . . . . @ # $ % & . . . . @ ",
". @ . . @ * = - ; > , % . . . @ ",
". @ . & ' ) ! ~ { ] ^ / ( . . @ ",
". . . _ : < [ } | 1 2 3 4 @ . @ ",
". . . 5 6 [ 7 8 9 0 a b c d . @ ",
". . . e f g [ [ ~ h i j k l . @ ",
". . @ m n o p q p r s t u v . @ ",
". @ @ w x y z i A B C D E F . @ ",
". @ . G H I J J K L M N O @ . @ ",
". @ . . P Q R S T U V W + . . @ ",
". @ . . . X Y Z `  ...+ . . @ @ ",
". @ . . . . @ +.+.@ . . . . . @ ",
". + @ @ @ @ @ @ @ @ @ @ @ @ @ + ",
". . . . . . . . . . . . . . . . "};
