/* XPM */
static const char * atomSelected_xpm[] = {
"16 16 95 2",
"  	c None",
". 	c #FFFFFF",
"+ 	c #FCFCFC",
"@ 	c #FEFEFE",
"# 	c #F8F8FC",
"$ 	c #F7F7FB",
"% 	c #F9F9FB",
"& 	c #FFFFFE",
"* 	c #E8E8F7",
"= 	c #C5C5F6",
"- 	c #A3A3F7",
"; 	c #9A9AF4",
"> 	c #AFAFEC",
", 	c #D9D9EF",
"' 	c #E0E0F3",
") 	c #8E8EEF",
"! 	c #4040FF",
"~ 	c #0D0DFF",
"{ 	c #1A19FF",
"] 	c #2727FF",
"^ 	c #6F6FDF",
"/ 	c #C8C8E3",
"( 	c #F9F9FA",
"_ 	c #F5F5FA",
": 	c #A2A2E9",
"< 	c #2828FC",
"[ 	c #0000FF",
"} 	c #2625FF",
"| 	c #4342FF",
"1 	c #2F2EFF",
"2 	c #0000E8",
"3 	c #6B6BBE",
"4 	c #D2D2DD",
"5 	c #E3E3F3",
"6 	c #6B6BE4",
"7 	c #0101FF",
"8 	c #1C1CFF",
"9 	c #3333FF",
"0 	c #2221FF",
"a 	c #0000E4",
"b 	c #0909AB",
"c 	c #9D9DB5",
"d 	c #F4F4F5",
"e 	c #CDCDE6",
"f 	c #4242D6",
"g 	c #0000F5",
"h 	c #0101F7",
"i 	c #0000D3",
"j 	c #0000A0",
"k 	c #7B7B9B",
"l 	c #ECECED",
"m 	c #C8C8E0",
"n 	c #3939C1",
"o 	c #0000DC",
"p 	c #0000ED",
"q 	c #0000F3",
"r 	c #0000DB",
"s 	c #0000BC",
"t 	c #000089",
"u 	c #808094",
"v 	c #EEEEEE",
"w 	c #D9D9E8",
"x 	c #5C5CB9",
"y 	c #0000BF",
"z 	c #0000CE",
"A 	c #0000CB",
"B 	c #0000B8",
"C 	c #000098",
"D 	c #19196B",
"E 	c #A4A4AB",
"F 	c #F7F7F6",
"G 	c #F2F2F6",
"H 	c #A4A4CD",
"I 	c #3434AE",
"J 	c #0000AE",
"K 	c #0000A4",
"L 	c #00008F",
"M 	c #010170",
"N 	c #7A7A8A",
"O 	c #D9D9DA",
"P 	c #E7E7F0",
"Q 	c #9E9EC6",
"R 	c #4B4BA1",
"S 	c #14148F",
"T 	c #121283",
"U 	c #40407C",
"V 	c #848496",
"W 	c #D4D4D6",
"X 	c #EEEEF3",
"Y 	c #CCCCD9",
"Z 	c #B1B1C5",
"` 	c #B1B1C2",
" .	c #C9C9D1",
"..	c #E7E7E9",
"+.	c #FBFBFB",
". + @ @ @ @ @ @ @ @ @ @ @ @ @ + ",
". @ . @ . . . . . . . . . . . @ ",
". @ . . . . @ # $ % & . . . . @ ",
". @ . . @ * = - ; > , % . . . @ ",
". @ . & ' ) ! ~ { ] ^ / ( . . @ ",
". @ . _ : < [ } | 1 2 3 4 @ . @ ",
". @ . 5 6 [ 7 8 9 0 a b c d . @ ",
". @ . e f g [ [ ~ h i j k l . @ ",
". @ @ m n o p q p r s t u v . @ ",
". @ @ w x y z i A B C D E F . @ ",
". @ . G H I J J K L M N O @ . @ ",
". @ . . P Q R S T U V W + . . @ ",
". @ . . . X Y Z `  ...+ . . @ @ ",
". @ . . . . @ +.+.@ . . . . . @ ",
". . . . . . @ @ @ @ @ @ @ @ @ + ",
". . . . . . . . . . . . . . . . "};
