/* XPM */
static char * atomHiddenSelected_xpm[] = {
"16 16 82 1",
" 	c None",
".	c #FFFFFF",
"+	c #FEFEFE",
"@	c #FDFDFE",
"#	c #FCFCFD",
"$	c #FDFDFD",
"%	c #FFFFFE",
"&	c #F9F9FC",
"*	c #F0F0FC",
"=	c #E7E7FC",
"-	c #E5E5FC",
";	c #EAEAFA",
">	c #F5F5FA",
",	c #F7F7FB",
"'	c #E2E2FA",
")	c #CFCFFF",
"!	c #C2C2FF",
"~	c #C5C5FF",
"{	c #C8C8FF",
"]	c #DADAF6",
"^	c #F1F1F7",
"/	c #E7E7F9",
"(	c #C9C9FE",
"_	c #BFBFFF",
":	c #CACAFF",
"<	c #BFBFF9",
"[	c #D9D9EE",
"}	c #F3F3F6",
"|	c #D9D9F8",
"1	c #C6C6FF",
"2	c #CBCBFF",
"3	c #C7C7FF",
"4	c #BFBFF8",
"5	c #C1C1E9",
"6	c #E6E6EC",
"7	c #FCFCFC",
"8	c #F2F2F8",
"9	c #CFCFF4",
"0	c #BFBFFC",
"a	c #BFBFF3",
"b	c #BFBFE7",
"c	c #DDDDE5",
"d	c #FAFAFA",
"e	c #CDCDEF",
"f	c #BFBFF6",
"g	c #BFBFFA",
"h	c #BFBFFB",
"i	c #BFBFF5",
"j	c #BFBFEE",
"k	c #BFBFE1",
"l	c #DFDFE4",
"m	c #F5F5F9",
"n	c #D6D6ED",
"o	c #BFBFF2",
"p	c #BFBFF1",
"q	c #BFBFED",
"r	c #BFBFE5",
"s	c #C5C5D9",
"t	c #E8E8E9",
"u	c #FBFBFC",
"v	c #E8E8F2",
"w	c #CCCCEA",
"x	c #BFBFEA",
"y	c #BFBFE8",
"z	c #BFBFE2",
"A	c #BFBFDB",
"B	c #DDDDE1",
"C	c #F5F5F5",
"D	c #F8F8FB",
"E	c #E6E6F0",
"F	c #D1D1E7",
"G	c #C4C4E2",
"H	c #C3C3DF",
"I	c #CFCFDE",
"J	c #E0E0E4",
"K	c #F4F4F4",
"L	c #FAFAFB",
"M	c #F2F2F5",
"N	c #EBEBF0",
"O	c #EBEBEF",
"P	c #F1F1F3",
"Q	c #F8F8F9",
".+++++++++++++++",
".+.+...........+",
".+....+@#$%....+",
".+..+&*=-;>$...+",
".+.%,')!~{]^$..+",
".+.#/(_{):<[}+.+",
".+.,|__1234567.+",
".+.890__!0abcd.+",
".++^efghgijkld.+",
".++mnjoapqrst7.+",
".+.uvwxxyzABC+.+",
".+..DEFGHIJK+..+",
".+...LMNOPQ+..++",
".+....+$$+.....+",
"......++++++++++",
"................"};
