/* XPM */
static const char * bmp3let_xpm[] = {
"16 15 2 1",
" 	c None",
".	c #000000",
" .     .        ",
" ..   ..     .  ",
" ..   .. .. ... ",
" . . . ..  . .  ",
" . . . ..... .  ",
" . . . ..    .  ",
" .  .  . ... .. ",
"                ",
"    .  .        ",
"   . . .        ",
"   . . . ....   ",
"  .   ..    .   ",
"  ......  ...   ",
"  .   .. .  .   ",
" .     . ....   "};
