/* XPM */
static const char * cancelDisabled_xpm[] = {
"16 16 2 1",
" 	c None",
".	c #E99D9D",
"                ",
"  ..        ..  ",
"  ...      ...  ",
"   ...    ...   ",
"    ...  ...    ",
"     ......     ",
"      ....      ",
"      ....      ",
"     ......     ",
"    ...  ...    ",
"   ...    ...   ",
"  ...      ...  ",
"  ..        ..  ",
"                ",
"                ",
"                "};
