/* XPM */
static char * chainPartialSelected_xpm[] = {
"16 16 155 2",
"  	c None",
". 	c #FFFFFF",
"+ 	c #FEFEFE",
"@ 	c #FAFAFA",
"# 	c #D1D1E6",
"$ 	c #B1B1E4",
"% 	c #9F9FE1",
"& 	c #E2E2F5",
"* 	c #E4E4F3",
"= 	c #ECECF3",
"- 	c #F6F6F7",
"; 	c #CBCBE4",
"> 	c #A1A1DF",
", 	c #A5A5DD",
"' 	c #ADADDD",
") 	c #9191E3",
"! 	c #5454FF",
"~ 	c #3F3FFF",
"{ 	c #2D2DFF",
"] 	c #C3C3F8",
"^ 	c #C1C1F3",
"/ 	c #C6C6EF",
"( 	c #D1D1EB",
"_ 	c #E3E3EE",
": 	c #E6E6F2",
"< 	c #E1E1F2",
"[ 	c #E1E1F1",
"} 	c #7878D6",
"| 	c #1F1FF2",
"1 	c #1D1DFF",
"2 	c #1212F5",
"3 	c #1111DC",
"4 	c #2121B7",
"5 	c #2D2DA3",
"6 	c #C9C9E6",
"7 	c #C5C5E6",
"8 	c #BFBFE7",
"9 	c #BFBFE8",
"0 	c #C3C3E8",
"a 	c #C2C2EC",
"b 	c #C0C0EF",
"c 	c #C2C2F1",
"d 	c #9898BF",
"e 	c #5757B3",
"f 	c #2424D6",
"g 	c #0202E2",
"h 	c #0000A3",
"i 	c #040474",
"j 	c #444477",
"k 	c #B7B7C2",
"l 	c #F2F2F3",
"m 	c #E2E2EA",
"n 	c #C6C6E1",
"o 	c #BFBFDF",
"p 	c #BFBFE5",
"q 	c #BFBFE2",
"r 	c #CBCBE1",
"s 	c #D7D7E9",
"t 	c #F0F0F1",
"u 	c #D4D4E0",
"v 	c #4B4BC7",
"w 	c #0303A5",
"x 	c #0A0A7A",
"y 	c #1B1BBC",
"z 	c #3D3D9C",
"A 	c #CACACF",
"B 	c #E6E6F4",
"C 	c #C9C9F7",
"D 	c #C4C4E4",
"E 	c #C1C1E5",
"F 	c #D9D9E4",
"G 	c #F8F8F8",
"H 	c #E8E8ED",
"I 	c #4E4EB8",
"J 	c #010189",
"K 	c #2424BA",
"L 	c #2C2CFF",
"M 	c #3333B1",
"N 	c #BCBCC5",
"O 	c #FCFCFC",
"P 	c #E0E0F5",
"Q 	c #CACAFF",
"R 	c #CACAF5",
"S 	c #C4C4EF",
"T 	c #BFBFEC",
"U 	c #DBDBE7",
"V 	c #E5E5EA",
"W 	c #6666BD",
"X 	c #1F1FD0",
"Y 	c #2D2DF9",
"Z 	c #2929E5",
"` 	c #393984",
" .	c #C8C8C8",
"..	c #FDFDFD",
"+.	c #E6E6F3",
"@.	c #CCCCFF",
"#.	c #C6C6FF",
"$.	c #C1C1F7",
"%.	c #E2E2EB",
"&.	c #FBFBFB",
"*.	c #BDBDDD",
"=.	c #7474D8",
"-.	c #4747EA",
";.	c #2B2BFA",
">.	c #2626D9",
",.	c #121287",
"'.	c #191957",
").	c #6565B1",
"!.	c #DEDEF5",
"~.	c #D9D9F9",
"{.	c #C9C9F9",
"].	c #C2C2F8",
"^.	c #BFBFFA",
"/.	c #C0C0F4",
"(.	c #CDCDEF",
"_.	c #D9D9EF",
":.	c #7B7BD2",
"<.	c #1616E4",
"[.	c #1818D4",
"}.	c #1919AB",
"|.	c #2C2C85",
"1.	c #212177",
"2.	c #02027D",
"3.	c #0B0BBB",
"4.	c #C4C4F9",
"5.	c #C7C7FC",
"6.	c #C9C9F1",
"7.	c #CACAE9",
"8.	c #C7C7EF",
"9.	c #C0C0F3",
"0.	c #BFBFF3",
"a.	c #C0C0F2",
"b.	c #7E7EB9",
"c.	c #1F1F9B",
"d.	c #34348B",
"e.	c #707097",
"f.	c #BEBEC7",
"g.	c #B7B7C9",
"h.	c #7B7BAB",
"i.	c #6262AB",
"j.	c #D7D7EB",
"k.	c #DBDBEC",
"l.	c #E7E7EF",
"m.	c #F1F1F4",
"n.	c #ECECF2",
"o.	c #DDDDED",
"p.	c #D0D0EA",
"q.	c #CACAEA",
"r.	c #D6D6DE",
"s.	c #B9B9C8",
"t.	c #D2D2D8",
"u.	c #F0F0F0",
"v.	c #F6F6F6",
"w.	c #F1F1F2",
"x.	c #F6F6F8",
". . . . . . . . . . . . . . . . ",
". . . . . . . . . . . . . . . . ",
". . . . . . . . + . . . . . . . ",
". . . . @ # $ % & * = - + . + + ",
"; > , ' ) ! ~ { ] ^ / ( _ : < [ ",
"} | 1 1 2 3 4 5 6 7 8 9 0 a b c ",
"d e f g h i j k l m n o p q r s ",
"t u v w x y z A . B C D E p F G ",
". H I J K L M N O P Q R S T U O ",
". V W X Y Z `  ...+.@.#.$.a %.&.",
"*.=.-.;.>.,.'.).!.~.{.].^./.(._.",
":.<.[.}.|.1.2.3.4.5.6.7.8.9.0.a.",
"b.c.d.e.f.g.h.i.j.k.l.m.n.o.p.q.",
"r.s.t.u.. . v.w.&.O . . . O x.m.",
". . . . . . . . . . . . . . . . ",
". . . . . . . . . . . . . . . . "};
