/* XPM */
static char * chain_xpm[] = {
"16 16 107 2",
"  	c None",
". 	c #FFFFFF",
"+ 	c #FDFDFD",
"@ 	c #FAFAFA",
"# 	c #E2E2E2",
"$ 	c #D9D9D9",
"% 	c #D3D3D3",
"& 	c #C8C8C8",
"* 	c #C4C4C4",
"= 	c #CCCCCC",
"- 	c #E1E1E1",
"; 	c #FEFEFE",
"> 	c #FCFCFC",
", 	c #DFDFDF",
"' 	c #D2D2D2",
") 	c #D4D4D4",
"! 	c #DEDEDE",
"~ 	c #E9E9E9",
"{ 	c #BABABA",
"] 	c #ABABAB",
"^ 	c #A0A0A0",
"/ 	c #9C9C9C",
"( 	c #B6B6B6",
"_ 	c #C3C3C3",
": 	c #BEBEBE",
"< 	c #BDBDBD",
"[ 	c #C7C7C7",
"} 	c #D5D5D5",
"| 	c #B2B2B2",
"1 	c #979797",
"2 	c #8B8B8B",
"3 	c #848484",
"4 	c #828282",
"5 	c #818181",
"6 	c #868686",
"7 	c #898989",
"8 	c #929292",
"9 	c #9B9B9B",
"0 	c #A2A2A2",
"a 	c #B7B7B7",
"b 	c #A1A1A1",
"c 	c #B3B3B3",
"d 	c #B5B5B5",
"e 	c #5D5D5D",
"f 	c #6D6D6D",
"g 	c #C0C0C0",
"h 	c #D1D1D1",
"i 	c #A5A5A5",
"j 	c #737373",
"k 	c #686868",
"l 	c #797979",
"m 	c #707070",
"n 	c #787878",
"o 	c #F0F0F0",
"p 	c #DDDDDD",
"q 	c #AFAFAF",
"r 	c #646464",
"s 	c #CECECE",
"t 	c #BCBCBC",
"u 	c #7A7A7A",
"v 	c #7D7D7D",
"w 	c #7B7B7B",
"x 	c #8D8D8D",
"y 	c #E7E7E7",
"z 	c #ECECEC",
"A 	c #9A9A9A",
"B 	c #F6F6F6",
"C 	c #C9C9C9",
"D 	c #EDEDED",
"E 	c #9F9F9F",
"F 	c #909090",
"G 	c #989898",
"H 	c #F4F4F4",
"I 	c #747474",
"J 	c #F8F8F8",
"K 	c #949494",
"L 	c #F3F3F3",
"M 	c #D6D6D6",
"N 	c #CFCFCF",
"O 	c #6E6E6E",
"P 	c #494949",
"Q 	c #C6C6C6",
"R 	c #CDCDCD",
"S 	c #BFBFBF",
"T 	c #ACACAC",
"U 	c #A6A6A6",
"V 	c #C1C1C1",
"W 	c #B9B9B9",
"X 	c #727272",
"Y 	c #656565",
"Z 	c #A8A8A8",
"` 	c #A7A7A7",
" .	c #A9A9A9",
"..	c #A4A4A4",
"+.	c #ADADAD",
"@.	c #838383",
"#.	c #8F8F8F",
"$.	c #C5C5C5",
"%.	c #9D9D9D",
"&.	c #BBBBBB",
"*.	c #999999",
"=.	c #939393",
"-.	c #DCDCDC",
";.	c #D7D7D7",
">.	c #F2F2F2",
",.	c #F5F5F5",
"'.	c #E3E3E3",
". . . . . . . . . . . . . . . . ",
". . . . . . . . . . . . . . . . ",
". . . . . . . . + . . . . . . . ",
". . . . @ # $ % & * = - ; . + > ",
", ' ' ) % ! ~ ) { ] ^ / ( _ : < ",
"_ [ % } [ | 1 2 3 4 5 6 7 8 9 0 ",
"a b c d 4 e f g h i j k l m n / ",
"o p q 3 r 9 7 s . & t u v w x y ",
". z 0 f A } 1 _ B C D ( E F G H ",
". ~ ] ] s < I & J [ ) ' a K ] L ",
"M * & N c O P 0 Q R S { : T U q ",
"V W T x X Y r 1 S & Z F ^ `  ...",
"+.@.u #.$.Q b %.0 ` &.% & ] *.=.",
"-.$.;.o . . B >.L ,.. . . B '.) ",
". . . . . . . . . . . . . . . . ",
". . . . . . . . . . . . . . . . "};
