/* XPM */
static const char * chainHidden_xpm[] = {
"16 16 43 1",
" 	c None",
".	c #FFFFFF",
"+	c #FEFEFE",
"@	c #FDFDFD",
"#	c #F7F7F7",
"$	c #F5F5F5",
"%	c #F3F3F3",
"&	c #F1F1F1",
"*	c #F0F0F0",
"=	c #F2F2F2",
"-	c #F6F6F6",
";	c #F4F4F4",
">	c #F9F9F9",
",	c #EDEDED",
"'	c #E9E9E9",
")	c #E7E7E7",
"!	c #E6E6E6",
"~	c #ECECEC",
"{	c #EFEFEF",
"]	c #EEEEEE",
"^	c #EBEBEB",
"/	c #E4E4E4",
"(	c #E1E1E1",
"_	c #E0E0E0",
":	c #DFDFDF",
"<	c #E3E3E3",
"[	c #E5E5E5",
"}	c #D6D6D6",
"|	c #DADADA",
"1	c #E8E8E8",
"2	c #DBDBDB",
"3	c #D9D9D9",
"4	c #DDDDDD",
"5	c #FBFBFB",
"6	c #EAEAEA",
"7	c #D8D8D8",
"8	c #DEDEDE",
"9	c #E2E2E2",
"0	c #F8F8F8",
"a	c #FAFAFA",
"b	c #FCFCFC",
"c	c #DCDCDC",
"d	c #D1D1D1",
"................",
"................",
"........+.......",
"....@#$%&*=#+.++",
"-%%;%->;,')!~{]]",
"{*%;*^/(_::_(<[)",
"~)^~:}|{%123424!",
"5-6_7[(=.&]48490",
".a)|[;/{b&a~!<[b",
".>''=]c&@*;%~/'5",
";*&=^|d)*=],]616",
"{,69277/]&'<)1'1",
"6:49**)!)1,%&'[<",
"-*;5..b55b...b#;",
"................",
"................"};
