/* XPM */
static const char * chainPartial_xpm[] = {
"16 16 84 1",
" 	c None",
".	c #FFFFFF",
"+	c #FEFEFE",
"@	c #FAFAFA",
"#	c #E2E2E2",
"$	c #D9D9D9",
"%	c #D3D3D3",
"&	c #F1F1F1",
"*	c #F0F0F0",
"=	c #F2F2F2",
"-	c #F7F7F7",
";	c #DFDFDF",
">	c #D2D2D2",
",	c #D4D4D4",
"'	c #DEDEDE",
")	c #E9E9E9",
"!	c #EDEDED",
"~	c #E7E7E7",
"{	c #E6E6E6",
"]	c #ECECEC",
"^	c #EFEFEF",
"/	c #EEEEEE",
"(	c #C3C3C3",
"_	c #C7C7C7",
":	c #D5D5D5",
"<	c #B2B2B2",
"[	c #979797",
"}	c #8B8B8B",
"|	c #E0E0E0",
"1	c #E1E1E1",
"2	c #E3E3E3",
"3	c #E5E5E5",
"4	c #B7B7B7",
"5	c #A1A1A1",
"6	c #B3B3B3",
"7	c #B5B5B5",
"8	c #828282",
"9	c #5D5D5D",
"0	c #6D6D6D",
"a	c #C0C0C0",
"b	c #F3F3F3",
"c	c #E8E8E8",
"d	c #DBDBDB",
"e	c #DDDDDD",
"f	c #AFAFAF",
"g	c #848484",
"h	c #646464",
"i	c #9B9B9B",
"j	c #898989",
"k	c #CECECE",
"l	c #F8F8F8",
"m	c #A2A2A2",
"n	c #9A9A9A",
"o	c #FCFCFC",
"p	c #ABABAB",
"q	c #BDBDBD",
"r	c #747474",
"s	c #C8C8C8",
"t	c #FDFDFD",
"u	c #F4F4F4",
"v	c #E4E4E4",
"w	c #FBFBFB",
"x	c #D6D6D6",
"y	c #C4C4C4",
"z	c #CFCFCF",
"A	c #6E6E6E",
"B	c #494949",
"C	c #EAEAEA",
"D	c #C1C1C1",
"E	c #B9B9B9",
"F	c #ACACAC",
"G	c #8D8D8D",
"H	c #727272",
"I	c #656565",
"J	c #ADADAD",
"K	c #838383",
"L	c #7A7A7A",
"M	c #8F8F8F",
"N	c #C5C5C5",
"O	c #C6C6C6",
"P	c #9D9D9D",
"Q	c #DCDCDC",
"R	c #D7D7D7",
"S	c #F6F6F6",
"................",
"................",
"........+.......",
"....@#$%&*=-+.++",
";>>,%'),!)~{]^//",
"(_%:_<[}|;;|123~",
"4567890abcd$ede{",
"*efghijk.&/e'e#l",
".]m0n:[(o&@]{23o",
".)ppkqrst*ub]v)w",
"xysz6ABm*=/!/CcC",
"DEFGHIh[/&)2~c)c",
"JKLMNO5P~c!b&)32",
"QNR*..S=wo...o-u",
"................",
"................"};
