/* XPM */
static const char * chainSelected_xpm[] = {
"16 16 161 2",
"  	c None",
". 	c #FFFFFF",
"+ 	c #FDFDFD",
"@ 	c #FAFAFA",
"# 	c #D1D1E6",
"$ 	c #B1B1E4",
"% 	c #9F9FE1",
"& 	c #8D8DD8",
"* 	c #9494D0",
"= 	c #B4B4D3",
"- 	c #DCDCE3",
"; 	c #FEFEFE",
"> 	c #FCFCFC",
", 	c #CBCBE4",
"' 	c #A1A1DF",
") 	c #A5A5DD",
"! 	c #ADADDD",
"~ 	c #9191E3",
"{ 	c #5454FF",
"] 	c #3F3FFF",
"^ 	c #2D2DFF",
"/ 	c #1313E5",
"( 	c #0B0BD3",
"_ 	c #1C1CC2",
": 	c #4949B1",
"< 	c #9292BF",
"[ 	c #9C9CCE",
"} 	c #8A8ACC",
"| 	c #8A8ACB",
"1 	c #7878D6",
"2 	c #1F1FF2",
"3 	c #1D1DFF",
"4 	c #1212F5",
"5 	c #1111DC",
"6 	c #2121B7",
"7 	c #2D2DA3",
"8 	c #28289C",
"9 	c #1B1B9C",
"0 	c #0202A1",
"a 	c #0000A7",
"b 	c #1111A7",
"c 	c #0C0CB4",
"d 	c #0505C0",
"e 	c #0C0CC8",
"f 	c #9898BF",
"g 	c #5757B3",
"h 	c #2424D6",
"i 	c #0202E2",
"j 	c #0000A3",
"k 	c #040474",
"l 	c #444477",
"m 	c #B7B7C2",
"n 	c #CCCCD3",
"o 	c #8C8CAC",
"p 	c #1C1C89",
"q 	c #000083",
"r 	c #000098",
"s 	c #01018C",
"t 	c #31318A",
"u 	c #6262AA",
"v 	c #F0F0F1",
"w 	c #D4D4E0",
"x 	c #4B4BC7",
"y 	c #0303A5",
"z 	c #0A0A7A",
"A 	c #1B1BBC",
"B 	c #3D3D9C",
"C 	c #CACACF",
"D 	c #9C9CD4",
"E 	c #2A2AE1",
"F 	c #171794",
"G 	c #0B0B9A",
"H 	c #020299",
"I 	c #6B6B97",
"J 	c #E5E5E7",
"K 	c #E8E8ED",
"L 	c #4E4EB8",
"M 	c #010189",
"N 	c #2424BA",
"O 	c #2C2CFF",
"P 	c #3333B1",
"Q 	c #BCBCC5",
"R 	c #F6F6F7",
"S 	c #8484DB",
"T 	c #2D2DDA",
"U 	c #1414C2",
"V 	c #0101B4",
"W 	c #7272A1",
"X 	c #F4F4F4",
"Y 	c #E5E5EA",
"Z 	c #6666BD",
"` 	c #1F1FD0",
" .	c #2D2DF9",
"..	c #2929E5",
"+.	c #393984",
"@.	c #C8C8C8",
"#.	c #F8F8F8",
"$.	c #9C9CD2",
"%.	c #3434FF",
"&.	c #1C1CFF",
"*.	c #0A0AE2",
"=.	c #0F0FB6",
"-.	c #8D8DB3",
";.	c #F2F2F3",
">.	c #BDBDDD",
",.	c #7474D8",
"'.	c #4747EA",
").	c #2B2BFA",
"!.	c #2626D9",
"~.	c #121287",
"{.	c #191957",
"].	c #6565B1",
"^.	c #7E7ED9",
"/.	c #6969E8",
"(.	c #2B2BE8",
"_.	c #0C0CE7",
":.	c #0101ED",
"<.	c #0505D5",
"[.	c #3B3BC1",
"}.	c #6B6BC0",
"|.	c #7B7BD2",
"1.	c #1616E4",
"2.	c #1818D4",
"3.	c #1919AB",
"4.	c #2C2C85",
"5.	c #212177",
"6.	c #02027D",
"7.	c #0B0BBB",
"8.	c #1616EB",
"9.	c #2121F5",
"0.	c #2929CB",
"a.	c #2E2EAA",
"b.	c #2121C1",
"c.	c #0505D0",
"d.	c #0000D3",
"e.	c #0505CC",
"f.	c #7E7EB9",
"g.	c #1F1F9B",
"h.	c #34348B",
"i.	c #707097",
"j.	c #BEBEC7",
"k.	c #B7B7C9",
"l.	c #7B7BAB",
"m.	c #6262AB",
"n.	c #6161B2",
"o.	c #7070B4",
"p.	c #A0A0C2",
"q.	c #CBCBD6",
"r.	c #B7B7CD",
"s.	c #7A7AB8",
"t.	c #4646AE",
"u.	c #2D2DAC",
"v.	c #D6D6DE",
"w.	c #B9B9C8",
"x.	c #D2D2D8",
"y.	c #F0F0F0",
"z.	c #F6F6F6",
"A.	c #F1F1F2",
"B.	c #F5F5F5",
"C.	c #DFDFE5",
"D.	c #CACAD7",
". . . . . . . . . . . . . . . . ",
". . . . . . . . . . . . . . . . ",
". . . . . . . . + . . . . . . . ",
". . . . @ # $ % & * = - ; . + > ",
", ' ) ! ~ { ] ^ / ( _ : < [ } | ",
"1 2 3 3 4 5 6 7 8 9 0 a b c d e ",
"f g h i j k l m n o p q r s t u ",
"v w x y z A B C . D E F G H I J ",
". K L M N O P Q R S O T U V W X ",
". Y Z `  ...+.@.#.$.%.&.*.=.-.;.",
">.,.'.).!.~.{.].^./.(._.:.<.[.}.",
"|.1.2.3.4.5.6.7.8.9.0.a.b.c.d.e.",
"f.g.h.i.j.k.l.m.n.o.p.q.r.s.t.u.",
"v.w.x.y.. . z.A.;.B.. . . z.C.D.",
". . . . . . . . . . . . . . . . ",
". . . . . . . . . . . . . . . . "};
