/* XPM */
static const char * chainHiddenSelected_xpm[] = {
"16 16 143 2",
"  	c None",
". 	c #FFFFFF",
"+ 	c #FEFEFE",
"@ 	c #FDFDFD",
"# 	c #F3F3F8",
"$ 	c #EBEBF8",
"% 	c #E6E6F7",
"& 	c #E2E2F5",
"* 	c #E4E4F3",
"= 	c #ECECF3",
"- 	c #F6F6F7",
"; 	c #F1F1F8",
"> 	c #E7E7F6",
", 	c #E8E8F6",
"' 	c #EAEAF6",
") 	c #E3E3F7",
"! 	c #D4D4FF",
"~ 	c #CECEFF",
"{ 	c #CACAFF",
"] 	c #C3C3F8",
"^ 	c #C1C1F3",
"/ 	c #C6C6EF",
"( 	c #D1D1EB",
"_ 	c #E3E3EE",
": 	c #E6E6F2",
"< 	c #E1E1F2",
"[ 	c #E1E1F1",
"} 	c #DDDDF4",
"| 	c #C6C6FB",
"1 	c #C6C6FF",
"2 	c #C3C3FC",
"3 	c #C3C3F6",
"4 	c #C7C7EC",
"5 	c #CACAE7",
"6 	c #C9C9E6",
"7 	c #C5C5E6",
"8 	c #BFBFE7",
"9 	c #BFBFE8",
"0 	c #C3C3E8",
"a 	c #C2C2EC",
"b 	c #C0C0EF",
"c 	c #C2C2F1",
"d 	c #E5E5EE",
"e 	c #D4D4EB",
"f 	c #C8C8F4",
"g 	c #BFBFF7",
"h 	c #C0C0DC",
"i 	c #D0D0DC",
"j 	c #ECECEF",
"k 	c #F2F2F3",
"l 	c #E2E2EA",
"m 	c #C6C6E1",
"n 	c #BFBFDF",
"o 	c #BFBFE5",
"p 	c #BFBFE2",
"q 	c #CBCBE1",
"r 	c #D7D7E9",
"s 	c #FBFBFB",
"t 	c #F4F4F7",
"u 	c #D1D1F0",
"v 	c #C1C1DD",
"w 	c #C5C5EE",
"x 	c #CECEE6",
"y 	c #F1F1F2",
"z 	c #E6E6F4",
"A 	c #C9C9F7",
"B 	c #C4C4E4",
"C 	c #C1C1E5",
"D 	c #D9D9E4",
"E 	c #F8F8F8",
"F 	c #F9F9FA",
"G 	c #D2D2ED",
"H 	c #BFBFE1",
"I 	c #C8C8ED",
"J 	c #CBCBEB",
"K 	c #EEEEF0",
"L 	c #FCFCFC",
"M 	c #E0E0F5",
"N 	c #CACAF5",
"O 	c #C4C4EF",
"P 	c #BFBFEC",
"Q 	c #DBDBE7",
"R 	c #F8F8F9",
"S 	c #D8D8EE",
"T 	c #C6C6F3",
"U 	c #CACAFD",
"V 	c #C9C9F8",
"W 	c #CDCDE0",
"X 	c #F1F1F1",
"Y 	c #E6E6F3",
"Z 	c #CCCCFF",
"` 	c #C1C1F7",
" .	c #E2E2EB",
"..	c #EEEEF6",
"+.	c #DCDCF5",
"@.	c #D0D0F9",
"#.	c #C9C9FD",
"$.	c #C8C8F5",
"%.	c #C3C3E0",
"&.	c #C5C5D4",
"*.	c #D8D8EB",
"=.	c #DEDEF5",
"-.	c #D9D9F9",
";.	c #C9C9F9",
">.	c #C2C2F8",
",.	c #BFBFFA",
"'.	c #C0C0F4",
").	c #CDCDEF",
"!.	c #D9D9EF",
"~.	c #DDDDF3",
"{.	c #C4C4F8",
"].	c #C5C5F4",
"^.	c #C5C5E9",
"/.	c #CACAE0",
"(.	c #C7C7DC",
"_.	c #BFBFDE",
":.	c #C1C1ED",
"<.	c #C4C4F9",
"[.	c #C7C7FC",
"}.	c #C9C9F1",
"|.	c #CACAE9",
"1.	c #C7C7EF",
"2.	c #C0C0F3",
"3.	c #BFBFF3",
"4.	c #C0C0F2",
"5.	c #DEDEED",
"6.	c #C6C6E5",
"7.	c #CCCCE1",
"8.	c #DBDBE4",
"9.	c #ECECF1",
"0.	c #DDDDE9",
"a.	c #D7D7EB",
"b.	c #DBDBEC",
"c.	c #E7E7EF",
"d.	c #F1F1F4",
"e.	c #ECECF2",
"f.	c #DDDDED",
"g.	c #D0D0EA",
"h.	c #CACAEA",
"i.	c #F4F4F6",
"j.	c #EDEDF1",
"k.	c #F3F3F5",
"l.	c #F6F6F8",
". . . . . . . . . . . . . . . . ",
". . . . . . . . . . . . . . . . ",
". . . . . . . . + . . . . . . . ",
". . . . @ # $ % & * = - + . + + ",
"; > , ' ) ! ~ { ] ^ / ( _ : < [ ",
"} | 1 1 2 3 4 5 6 7 8 9 0 a b c ",
"d e f g 8 h i j k l m n o p q r ",
"s t u 9 v w x y . z A B C o D E ",
". F G H I { J K L M { N O P Q L ",
". R S T U V W X @ Y Z 1 ` a  .s ",
"..+.@.#.$.%.&.*.=.-.;.>.,.'.).!.",
"~.{.].^./.(._.:.<.[.}.|.1.2.3.4.",
"5.6.7.8.K 9.0.r a.b.c.d.e.f.g.h.",
"i.j.k.s . . L s s L . . . L l.d.",
". . . . . . . . . . . . . . . . ",
". . . . . . . . . . . . . . . . "};
