/* XPM */
static const char * chekpoin_xpm[] = {
"16 16 4 1",
" 	c None",
".	c #FFFF00",
"+	c #000000",
"@	c #00BF00",
"                ",
"     ......+    ",
"     ......+@@  ",
"     ......@@   ",
"     .....@@    ",
"     ....@@+    ",
"    @@..@@.+    ",
"     @@@@..+    ",
"     .@@...+    ",
"  ............  ",
"   ..........+  ",
"     ......++   ",
"      ....+     ",
"        .+      ",
"                ",
"                "};
