/* XPM */
static const char * colortool_xpm[] = {
"16 16 5 1",
" 	c None",
".	c #000000",
"+	c #FFFFFF",
"@	c #FF0000",
"#	c #FFFF00",
"       .........",
"       .+++++++.",
"       .       .",
"       .       .",
"      @.........",
"     @@.........",
"     @@..       ",
"   @@@@.        ",
" @@@@@@@        ",
" @@@@@@@        ",
"@#@@##@@@       ",
"##@@##@##       ",
"#########       ",
" #######        ",
" #######        ",
"                "};
