/* XPM */
static char * crystal_xpm[] = {
"16 16 111 2",
"  	c None",
". 	c #FFFFFF",
"+ 	c #FEFEFE",
"@ 	c #FCFCFC",
"# 	c #F9F8F8",
"$ 	c #F3F1F1",
"% 	c #EDE7E7",
"& 	c #E8DFDF",
"* 	c #E3D5D5",
"= 	c #DDC9C9",
"- 	c #D6B5B5",
"; 	c #CAA4A4",
"> 	c #CBB7B7",
", 	c #F6F5F5",
"' 	c #E7DBDB",
") 	c #E0A3A3",
"! 	c #EC9696",
"~ 	c #EF8787",
"{ 	c #ED7D7D",
"] 	c #EA7171",
"^ 	c #E36363",
"/ 	c #CE5252",
"( 	c #A34545",
"_ 	c #A68787",
": 	c #F2F1F1",
"< 	c #FDFDFD",
"[ 	c #D7A5A5",
"} 	c #FE6363",
"| 	c #FF7777",
"1 	c #FF7D7D",
"2 	c #FF7474",
"3 	c #FB6565",
"4 	c #CD5151",
"5 	c #954141",
"6 	c #6E4545",
"7 	c #B4ADAD",
"8 	c #E4D8D8",
"9 	c #D86A6A",
"0 	c #F44242",
"a 	c #FF6565",
"b 	c #FF8282",
"c 	c #C15959",
"d 	c #7C3F3F",
"e 	c #5E3838",
"f 	c #755C5C",
"g 	c #D8D6D6",
"h 	c #D4A6A6",
"i 	c #E44444",
"j 	c #ED3B3B",
"k 	c #EE4747",
"l 	c #E36161",
"m 	c #A55454",
"n 	c #6A3C3C",
"o 	c #5A3737",
"p 	c #5E3939",
"q 	c #928181",
"r 	c #F2EEEE",
"s 	c #D17B7B",
"t 	c #E73939",
"u 	c #E23B3B",
"v 	c #CA3A3A",
"w 	c #A73E3E",
"x 	c #7A3838",
"y 	c #603838",
"z 	c #5D3838",
"A 	c #654444",
"B 	c #B5ADAD",
"C 	c #DECCCC",
"D 	c #D65858",
"E 	c #DB3939",
"F 	c #C23939",
"G 	c #A83838",
"H 	c #9E3838",
"I 	c #923838",
"J 	c #6F3838",
"K 	c #765C5C",
"L 	c #F2EFEF",
"M 	c #CD8A8A",
"N 	c #CF3E3E",
"O 	c #BA3838",
"P 	c #A43838",
"Q 	c #9F3838",
"R 	c #9D3838",
"S 	c #8A3838",
"T 	c #6A3939",
"U 	c #DDCDCD",
"V 	c #C45656",
"W 	c #B63939",
"X 	c #A13838",
"Y 	c #9F3A3A",
"Z 	c #9F3939",
"` 	c #9B3C3C",
" .	c #874949",
"..	c #B7ACAC",
"+.	c #D3C0C0",
"@.	c #B36D6D",
"#.	c #AA6C6C",
"$.	c #AC7777",
"%.	c #AE7C7C",
"&.	c #B08383",
"*.	c #B48C8C",
"=.	c #B68F8F",
"-.	c #BB9B9B",
";.	c #BEA7A7",
">.	c #E6E3E3",
",.	c #E4DFDF",
"'.	c #EBE8E8",
").	c #F1EFEF",
"!.	c #F3F2F2",
"~.	c #FAFAFA",
"{.	c #F9F9F9",
". . . . . . . . . . . . . . . . ",
". . . . . . . . . . . . . . . . ",
". . . . . . . . . . . . + @ . . ",
". . . . . # $ % & * = - ; > , . ",
". . . . ' ) ! ~ { ] ^ / ( _ : . ",
". . . < [ } | 1 2 3 4 5 6 7 . . ",
". . . 8 9 0 a b | c d e f g . . ",
". . + h i j k l m n o p q : . . ",
". . r s t u v w x y z A B . . . ",
". . C D E F G H I J z K g . . . ",
". L M N O P H Q R S T q : . . . ",
". U V W X Q Q Y Z `  .... . . . ",
"< +.@.#.$.%.&.*.=.-.;.>.. . . . ",
". $ ,.'.).!., ~.{.+ @ . . . . . ",
". . . . . . . . . . . . . . . . ",
". . . . . . . . . . . . . . . . "};
