/* XPM */
static char * crystalSelected_xpm[] = {
"16 16 136 2",
"  	c None",
". 	c #FFFFFF",
"+ 	c #FAFBFD",
"@ 	c #E3EBF7",
"# 	c #DDE7F5",
"$ 	c #DDE6F5",
"% 	c #E2EAF7",
"& 	c #F9FAFD",
"* 	c #CCDAF0",
"= 	c #6B94D5",
"- 	c #5483CF",
"; 	c #5383CE",
"> 	c #5282CD",
", 	c #5281CB",
"' 	c #C6D6EF",
") 	c #386FC7",
"! 	c #3168C0",
"~ 	c #3265BA",
"{ 	c #3562B3",
"] 	c #375FAD",
"^ 	c #3B5CA6",
"/ 	c #41599E",
"( 	c #4E538F",
"_ 	c #544E82",
": 	c #405290",
"< 	c #356ABE",
"[ 	c #4E7FCD",
"} 	c #C7D6EF",
"| 	c #395EAA",
"1 	c #795886",
"2 	c #A05F81",
"3 	c #B55E77",
"4 	c #BE5B70",
"5 	c #C55666",
"6 	c #C7505C",
"7 	c #BF474E",
"8 	c #993E42",
"9 	c #4C466E",
"0 	c #2F64BA",
"a 	c #316AC5",
"b 	c #366DC4",
"c 	c #5F4F83",
"d 	c #EE585F",
"e 	c #FE7677",
"f 	c #FF7D7D",
"g 	c #FF7474",
"h 	c #FB6565",
"i 	c #CD5151",
"j 	c #954141",
"k 	c #603A41",
"l 	c #324F88",
"m 	c #376EC6",
"n 	c #385CA8",
"o 	c #9E405A",
"p 	c #F34242",
"q 	c #FF6565",
"r 	c #FF8282",
"s 	c #FF7777",
"t 	c #C15959",
"u 	c #7C3F3F",
"v 	c #5E3838",
"w 	c #4B3D50",
"x 	c #2F5BA6",
"y 	c #C0D2ED",
"z 	c #366DC5",
"A 	c #594D83",
"B 	c #D73B40",
"C 	c #ED3B3B",
"D 	c #EE4747",
"E 	c #E36161",
"F 	c #A55454",
"G 	c #6A3C3C",
"H 	c #5A3737",
"I 	c #5C3839",
"J 	c #3E4469",
"K 	c #C1D2ED",
"L 	c #3163B8",
"M 	c #854365",
"N 	c #E63939",
"O 	c #E23B3B",
"P 	c #CA3A3A",
"Q 	c #A73E3E",
"R 	c #7A3838",
"S 	c #603838",
"T 	c #5D3838",
"U 	c #573940",
"V 	c #334F88",
"W 	c #6A93D5",
"X 	c #3E589F",
"Y 	c #B03D4D",
"Z 	c #DB3939",
"` 	c #C13939",
" .	c #A83838",
"..	c #9D3838",
"+.	c #923838",
"@.	c #6F3838",
"#.	c #3164B9",
"$.	c #6F466F",
"%.	c #C7393C",
"&.	c #B93838",
"*.	c #A43838",
"=.	c #9E3838",
"-.	c #9F3838",
";.	c #8A3838",
">.	c #683839",
",.	c #3B58A0",
"'.	c #A03C4C",
").	c #B63939",
"!.	c #A13838",
"~.	c #9C3839",
"{.	c #9E3839",
"].	c #96383A",
"^.	c #723A43",
"/.	c #364F88",
"(.	c #3069C3",
"_.	c #3D5496",
":.	c #75405C",
"<.	c #6D405B",
"[.	c #634262",
"}.	c #604366",
"|.	c #5B456B",
"1.	c #544771",
"2.	c #524773",
"3.	c #4C4A7C",
"4.	c #414D84",
"5.	c #3563B0",
"6.	c #648FD3",
"7.	c #3668BB",
"8.	c #325EAD",
"9.	c #3161B4",
"0.	c #3064B9",
"a.	c #3065BB",
"b.	c #3066BD",
"c.	c #3068C1",
"d.	c #3067C0",
"e.	c #4D7DCA",
". . . . . . . . . . . . . . . . ",
". . . + @ # $ $ $ $ $ $ $ $ % & ",
". . + * = - ; ; ; ; ; ; > , = ' ",
". . @ = ) ! ~ { ] ^ / ( _ : < [ ",
". + } [ | 1 2 3 4 5 6 7 8 9 0 a ",
". @ = b c d e f g h i j k l m [ ",
"+ } [ n o p q r s t u v w x [ y ",
"@ = z A B C D E F G H I J 0 ; $ ",
"K [ L M N O P Q R S T U V m W % ",
"[ m X Y Z `  ...+.@.T w x [ ' & ",
"a #.$.%.&.*.=.-...;.>.J 0 ; $ . ",
"a ,.'.).!.-.-.~.{.].^./.m W % . ",
"(._.:.<.[.}.|.1.2.3.4.5.6.* & . ",
"[ 7.8.9.0.a.b.c.d.z e.W * & . . ",
"' = - ; ; ; ; ; ; = ' % & . . . ",
"+ @ # $ $ $ $ $ $ % & . . . . . "};
