/* XPM */
static const char * fitDisabled_xpm[] = {
"16 16 3 1",
" 	c None",
".	c #9D9D9D",
"+	c #9DE99D",
"                ",
"  ..      .     ",
"  .+.   ..+.    ",
"   .+. .++.     ",
"  . .+.++.   .  ",
" ..  .+.     .. ",
"......+.  ......",
" ..  .+.     .. ",
"  . ..+.    ..  ",
"   .++++.  .+.  ",
"  .+....+..+.   ",
" .+.    .++.    ",
" ..      ..     ",
"                ",
"                ",
"                "};
