/* XPM */
static const char * folder_xpm[] = {
"16 16 83 1",
" 	c None",
".	c #FFFFFF",
"+	c #D7D7D7",
"@	c #CFCFCF",
"#	c #DFDFE0",
"$	c #DFDFDF",
"%	c #F7F7F7",
"&	c #101010",
"*	c #212109",
"=	c #1A1A08",
"-	c #1A1A09",
";	c #060602",
">	c #282828",
",	c #050502",
"'	c #A0A000",
")	c #A5A500",
"!	c #A6A600",
"~	c #878700",
"{	c #000000",
"]	c #303030",
"^	c #404040",
"/	c #777777",
"(	c #090903",
"_	c #323200",
":	c #4C4C00",
"<	c #4E4E00",
"[	c #505000",
"}	c #484800",
"|	c #464602",
"1	c #474702",
"2	c #494902",
"3	c #343402",
"4	c #1F1F1E",
"5	c #E7E7E8",
"6	c #020201",
"7	c #787800",
"8	c #BEBE00",
"9	c #BDBD00",
"0	c #BCBC00",
"a	c #979700",
"b	c #272726",
"c	c #EFEFEF",
"d	c #888800",
"e	c #BABA00",
"f	c #B9B900",
"g	c #848404",
"h	c #2F2F2F",
"i	c #8E8E00",
"j	c #B8B800",
"k	c #B7B700",
"l	c #B6B600",
"m	c #777706",
"n	c #474747",
"o	c #080808",
"p	c #949400",
"q	c #B5B500",
"r	c #B4B400",
"s	c #717107",
"t	c #575757",
"u	c #10100F",
"v	c #949401",
"w	c #B3B300",
"x	c #B2B200",
"y	c #646404",
"z	c #606060",
"A	c #1F1F1F",
"B	c #8D8D01",
"C	c #909000",
"D	c #747403",
"E	c #585802",
"F	c #424200",
"G	c #1C1C00",
"H	c #707070",
"I	c #313100",
"J	c #2C2C00",
"K	c #101004",
"L	c #0F0F0F",
"M	c #585858",
"N	c #7F7F7F",
"O	c #9F9F9E",
"P	c #878787",
"Q	c #BFBFBF",
"R	c #E7E7E7",
"................",
"................",
"..+@@#$%........",
".%&*=-;>........",
".$,')!~{]^^^/...",
".#(_:<[}|1234...",
".5678889900ab...",
".c{deeeeeefgh...",
"..{ijjjjjklmn...",
"..oplllqlrrst...",
"..uvqrrwwxxyz...",
"..ABxx!CDEFGH...",
"..hIJK{LhMNO+...",
"..PNOQR.........",
"................",
"................"};
