/* XPM */
static const char * folderOpened_xpm[] = {
"16 16 88 1",
" 	c None",
".	c #FFFFFF",
"+	c #EFEFEF",
"@	c #CFCFCF",
"#	c #D7D7D7",
"$	c #DFDFE0",
"%	c #E7E7E7",
"&	c #4E4E4D",
"*	c #27270B",
"=	c #21210A",
"-	c #1A1A09",
";	c #0D0D05",
">	c #868685",
",	c #141408",
"'	c #CDCD00",
")	c #CECE00",
"!	c #272709",
"~	c #404040",
"{	c #474747",
"]	c #BEBEBD",
"^	c #1A1A0A",
"/	c #CACA00",
"(	c #CBCB00",
"_	c #BEBE03",
":	c #98980A",
"<	c #97970A",
"[	c #96960A",
"}	c #6A6A0B",
"|	c #3F3F3F",
"1	c #EFEFF0",
"2	c #0D0D06",
"3	c #C7C700",
"4	c #959500",
"5	c #525200",
"6	c #4B4B00",
"7	c #3E3E00",
"8	c #323200",
"9	c #2B2B00",
"0	c #303006",
"a	c #1B1B16",
"b	c #171717",
"c	c #1E1E1E",
"d	c #F7F7F7",
"e	c #060603",
"f	c #BEBE00",
"g	c #101000",
"h	c #4C4C00",
"i	c #515100",
"j	c #585800",
"k	c #606000",
"l	c #646400",
"m	c #686800",
"n	c #6F6F02",
"o	c #444405",
"p	c #3E3E3E",
"q	c #000000",
"r	c #9C9C00",
"s	c #292900",
"t	c #7F7F00",
"u	c #7A7A00",
"v	c #20200E",
"w	c #CECECE",
"x	c #10100F",
"y	c #696900",
"z	c #666600",
"A	c #545407",
"B	c #565655",
"C	c #616101",
"D	c #1C1C0D",
"E	c #D6D6D6",
"F	c #272726",
"G	c #787801",
"H	c #6F6F00",
"I	c #606005",
"J	c #4C4C06",
"K	c #373700",
"L	c #242406",
"M	c #666665",
"N	c #2F2F2F",
"O	c #2C2C00",
"P	c #282801",
"Q	c #151508",
"R	c #0C0C0A",
"S	c #1F1F1E",
"T	c #686868",
"U	c #8E8E8E",
"V	c #AEAEAE",
"W	c #C5C5C4",
"................",
"................",
"..+@#$%.........",
"..&*=-;>........",
".%,')))!~~~{]...",
".$^//((_:<[}|...",
".12345677890abc.",
".defghijjklmnop.",
"..qrstttttttuvw.",
"..xyztttttttAB..",
"..bCtttttttuDE..",
"..FGttuHIJKLM...",
"..NOPQRS|TUV....",
"..WUV#d.........",
"................",
"................"};
