/* XPM */
static char * job_xpm[] = {
"16 16 100 2",
"  	c None",
". 	c #FFFFFF",
"+ 	c #FEFEFE",
"@ 	c #F8F8F8",
"# 	c #FAFAFA",
"$ 	c #FDFDFD",
"% 	c #F2F2F2",
"& 	c #DFDFDF",
"* 	c #D5D5D5",
"= 	c #D3D3D3",
"- 	c #D9D9D9",
"; 	c #EDEDED",
"> 	c #E5E5E5",
", 	c #CBCBCB",
"' 	c #E1E1E1",
") 	c #C8C8C8",
"! 	c #D6D6D6",
"~ 	c #E7E7E7",
"{ 	c #C9C9C9",
"] 	c #EAEAEA",
"^ 	c #DCDCDC",
"/ 	c #B4B4B4",
"( 	c #CECECE",
"_ 	c #F5F5F5",
": 	c #C5C5C5",
"< 	c #DADADA",
"[ 	c #E8E8E8",
"} 	c #BBBBBB",
"| 	c #A5A5A5",
"1 	c #BFBFBF",
"2 	c #E6E6E6",
"3 	c #BDBDBD",
"4 	c #909090",
"5 	c #B9B9B9",
"6 	c #C4C4C4",
"7 	c #C2C2C2",
"8 	c #E3E3E3",
"9 	c #EEEEEE",
"0 	c #B5B5B5",
"a 	c #8A8A8A",
"b 	c #919191",
"c 	c #EFEFEF",
"d 	c #E9E9E9",
"e 	c #F6F6F6",
"f 	c #F7F7F7",
"g 	c #F4F4F4",
"h 	c #DEDEDE",
"i 	c #C7C7C7",
"j 	c #AAAAAA",
"k 	c #838383",
"l 	c #7D7D7D",
"m 	c #CACACA",
"n 	c #D8D8D8",
"o 	c #E2E2E2",
"p 	c #CCCCCC",
"q 	c #B7B7B7",
"r 	c #9A9A9A",
"s 	c #737373",
"t 	c #707070",
"u 	c #C1C1C1",
"v 	c #ACACAC",
"w 	c #BABABA",
"x 	c #D4D4D4",
"y 	c #D0D0D0",
"z 	c #A4A4A4",
"A 	c #858585",
"B 	c #5F5F5F",
"C 	c #F1F1F1",
"D 	c #B1B1B1",
"E 	c #B6B6B6",
"F 	c #C0C0C0",
"G 	c #B8B8B8",
"H 	c #9E9E9E",
"I 	c #6B6B6B",
"J 	c #535353",
"K 	c #ABABAB",
"L 	c #AEAEAE",
"M 	c #ADADAD",
"N 	c #A9A9A9",
"O 	c #A0A0A0",
"P 	c #959595",
"Q 	c #878787",
"R 	c #727272",
"S 	c #545454",
"T 	c #717171",
"U 	c #DBDBDB",
"V 	c #A1A1A1",
"W 	c #767676",
"X 	c #606060",
"Y 	c #6C6C6C",
"Z 	c #DDDDDD",
"` 	c #999999",
" .	c #929292",
"..	c #8D8D8D",
"+.	c #848484",
"@.	c #808080",
"#.	c #A7A7A7",
"$.	c #9D9D9D",
"%.	c #989898",
"&.	c #F3F3F3",
". . . . . . + @ # $ . . . . . . ",
". . . . % & * * * = - ; . . . . ",
". . . > , ' $ . . . ' ) ! @ . . ",
". . ~ { ] . . . . . . ^ / ( . . ",
". _ : < . . . . . . . [ } | > . ",
". - 1 2 $ . . . . . . ' 3 4 5 + ",
". 6 7 8 _ . . . . . 9 * 0 a b c ",
"$ 3 3 < d % e f g ; h i j k l 2 ",
"+ } / m n o ~ [ > ^ p q r s t ' ",
"$ u v w : ( x * y : q z A B k C ",
". - v D E } F 1 G v H a I J K . ",
". % q K L M M N O P Q R S T U . ",
". . & D | | V r b A W X Y 1 + . ",
". . . Z K `  ...+.W Y @.F # . . ",
". . . . > F #.$.%.r / Z + . . . ",
". . . . . + _ % &._ . . . . . . "};
