/* XPM */
static const char * jobOk_xpm[] = {
"16 16 165 2",
"  	c None",
". 	c #FFFFFF",
"+ 	c #EEF1EE",
"@ 	c #D3E2D3",
"# 	c #C8DFC8",
"$ 	c #C7DEC7",
"% 	c #D1E1D1",
"& 	c #EAEEEA",
"* 	c #FEFEFE",
"= 	c #F9F9F9",
"- 	c #C0DAC0",
"; 	c #69D269",
"> 	c #33E433",
", 	c #26F226",
"' 	c #26F326",
") 	c #31E431",
"! 	c #5ECD5E",
"~ 	c #ADD1AD",
"{ 	c #F5F6F5",
"] 	c #F3F4F3",
"^ 	c #9DCE9D",
"/ 	c #39DB39",
"( 	c #06FF06",
"_ 	c #00FF00",
": 	c #07FF07",
"< 	c #20FF20",
"[ 	c #1AFF1A",
"} 	c #02F702",
"| 	c #2ECF2E",
"1 	c #9FCA9F",
"2 	c #ACD0AC",
"3 	c #2DD42D",
"4 	c #00FD00",
"5 	c #05FF05",
"6 	c #2AFF2A",
"7 	c #4EFF4D",
"8 	c #41FF41",
"9 	c #16FF16",
"0 	c #00E500",
"a 	c #2EB92E",
"b 	c #A0C0A0",
"c 	c #F8F8F8",
"d 	c #D4DFD4",
"e 	c #4AC14A",
"f 	c #02E702",
"g 	c #08FF08",
"h 	c #2CFF2C",
"i 	c #4DFF4D",
"j 	c #3FFF3E",
"k 	c #14FF14",
"l 	c #00E400",
"m 	c #00BA00",
"n 	c #3C973C",
"o 	c #CDD5CD",
"p 	c #99C399",
"q 	c #0FC40F",
"r 	c #00E700",
"s 	c #00FB00",
"t 	c #13FF13",
"u 	c #24FF24",
"v 	c #01F501",
"w 	c #00D900",
"x 	c #00B700",
"y 	c #0E8A0E",
"z 	c #8FAA8F",
"A 	c #FAFAFA",
"B 	c #75B775",
"C 	c #02C302",
"D 	c #00E000",
"E 	c #00EF00",
"F 	c #00F900",
"G 	c #04FE04",
"H 	c #00CB00",
"I 	c #00AD00",
"J 	c #008300",
"K 	c #598559",
"L 	c #EBEBEB",
"M 	c #70B570",
"N 	c #02BA02",
"O 	c #00D200",
"P 	c #00E100",
"Q 	c #00EA00",
"R 	c #00EE00",
"S 	c #00EC00",
"T 	c #00E300",
"U 	c #00D300",
"V 	c #00BC00",
"W 	c #009F00",
"X 	c #007600",
"Y 	c #4F7A4F",
"Z 	c #E9E9E9",
"` 	c #76B576",
" .	c #03B003",
"..	c #00C100",
"+.	c #00CE00",
"@.	c #00D700",
"#.	c #00DC00",
"$.	c #00DD00",
"%.	c #00CD00",
"&.	c #00BE00",
"*.	c #00AA00",
"=.	c #008B00",
"-.	c #006300",
";.	c #658265",
">.	c #F2F2F2",
",.	c #A0C4A0",
"'.	c #13AB13",
").	c #00B400",
"!.	c #00C300",
"~.	c #00C800",
"{.	c #00C700",
"].	c #00C000",
"^.	c #00A700",
"/.	c #009200",
"(.	c #007200",
"_.	c #095109",
":.	c #869486",
"<.	c #CFDBCF",
"[.	c #3BAB3B",
"}.	c #00AE00",
"|.	c #00B000",
"1.	c #00B200",
"2.	c #00B300",
"3.	c #00A800",
"4.	c #009C00",
"5.	c #008E00",
"6.	c #007800",
"7.	c #005800",
"8.	c #365E36",
"9.	c #C5C8C5",
"0.	c #F6F6F6",
"a.	c #9DC39D",
"b.	c #2CAA2C",
"c.	c #00A900",
"d.	c #00A400",
"e.	c #009D00",
"f.	c #009400",
"g.	c #008800",
"h.	c #007900",
"i.	c #185418",
"j.	c #8E9B8E",
"k.	c #F4F5F4",
"l.	c #2BA22B",
"m.	c #029C02",
"n.	c #009900",
"o.	c #007B00",
"p.	c #016801",
"q.	c #226422",
"r.	c #7D927D",
"s.	c #E4E5E4",
"t.	c #ACC6AC",
"u.	c #5FA55F",
"v.	c #319331",
"w.	c #1D881D",
"x.	c #1C7F1C",
"y.	c #347E34",
"z.	c #679067",
"A.	c #ABB8AB",
"B.	c #ECECEC",
"C.	c #EAECEA",
"D.	c #D0D9D0",
"E.	c #BCCBBC",
"F.	c #BAC8BA",
"G.	c #D2D8D2",
"H.	c #F0F1F0",
". . . . . + @ # $ % & * . . . . ",
". . . = - ; > , ' ) ! ~ { . . . ",
". . ] ^ / ( _ : < [ } | 1 { . . ",
". * 2 3 4 _ 5 6 7 8 9 0 a b c . ",
". d e f _ _ g h i j k l m n o . ",
"* p q r s _ _ t u [ v w x y z A ",
"c B C D E F 4 _ G v l H I J K L ",
"c M N O P Q R E S T U V W X Y Z ",
"c `  ...+.@.#.$.w %.&.*.=.-.;.>.",
"* ,.'.).V !.~.{.].).^./.(._.:.= ",
". <.[.}.|.1.2.|.3.4.5.6.7.8.9.. ",
". 0.a.b.c.^.d.e.f.g.h.-.i.j.0.. ",
". . k.a.l.m.n./.g.o.p.q.r.s.. . ",
". . . k.t.u.v.w.x.y.z.A.B.. . . ",
". . . . * C.D.E.F.G.H.. . . . . ",
". . . . . . . . . . . . . . . . "};
