/* XPM */
static const char * jobRunning_xpm[] = {
"16 16 164 2",
"  	c None",
". 	c #FFFFFF",
"+ 	c #F1F1EE",
"@ 	c #E2E2D3",
"# 	c #DFDFC8",
"$ 	c #DEDEC7",
"% 	c #E1E1D1",
"& 	c #EEEEEA",
"* 	c #FEFEFE",
"= 	c #F9F9F9",
"- 	c #DADAC0",
"; 	c #D2D269",
"> 	c #E4E433",
", 	c #F2F226",
"' 	c #F3F326",
") 	c #E4E431",
"! 	c #CDCD5E",
"~ 	c #D1D1AD",
"{ 	c #F6F6F5",
"] 	c #F4F4F3",
"^ 	c #CECE9D",
"/ 	c #DBDB39",
"( 	c #FFFF06",
"_ 	c #FFFF00",
": 	c #FFFF07",
"< 	c #FFFF20",
"[ 	c #FFFF1A",
"} 	c #F7F702",
"| 	c #CFCF2E",
"1 	c #CACA9F",
"2 	c #D0D0AC",
"3 	c #D4D42D",
"4 	c #FDFD00",
"5 	c #FFFF05",
"6 	c #FFFF2A",
"7 	c #FFFF4D",
"8 	c #FFFF41",
"9 	c #FFFF16",
"0 	c #E5E500",
"a 	c #B9B92E",
"b 	c #C0C0A0",
"c 	c #F8F8F8",
"d 	c #DFDFD4",
"e 	c #C1C14A",
"f 	c #E7E702",
"g 	c #FFFF08",
"h 	c #FFFF2C",
"i 	c #FFFF3E",
"j 	c #FFFF14",
"k 	c #E4E400",
"l 	c #BABA00",
"m 	c #97973C",
"n 	c #D5D5CD",
"o 	c #C3C399",
"p 	c #C4C40F",
"q 	c #E7E700",
"r 	c #FBFB00",
"s 	c #FFFF13",
"t 	c #FFFF24",
"u 	c #F5F501",
"v 	c #D9D900",
"w 	c #B7B700",
"x 	c #8A8A0E",
"y 	c #AAAA8F",
"z 	c #FAFAFA",
"A 	c #B7B775",
"B 	c #C3C302",
"C 	c #E0E000",
"D 	c #EFEF00",
"E 	c #F9F900",
"F 	c #FEFE04",
"G 	c #CBCB00",
"H 	c #ADAD00",
"I 	c #838300",
"J 	c #858559",
"K 	c #EBEBEB",
"L 	c #B5B570",
"M 	c #BABA02",
"N 	c #D2D200",
"O 	c #E1E100",
"P 	c #EAEA00",
"Q 	c #EEEE00",
"R 	c #ECEC00",
"S 	c #E3E300",
"T 	c #D3D300",
"U 	c #BCBC00",
"V 	c #9F9F00",
"W 	c #767600",
"X 	c #7A7A4F",
"Y 	c #E9E9E9",
"Z 	c #B5B576",
"` 	c #B0B003",
" .	c #C1C100",
"..	c #CECE00",
"+.	c #D7D700",
"@.	c #DCDC00",
"#.	c #DDDD00",
"$.	c #CDCD00",
"%.	c #BEBE00",
"&.	c #AAAA00",
"*.	c #8B8B00",
"=.	c #636300",
"-.	c #828265",
";.	c #F2F2F2",
">.	c #C4C4A0",
",.	c #ABAB13",
"'.	c #B4B400",
").	c #C3C300",
"!.	c #C8C800",
"~.	c #C7C700",
"{.	c #C0C000",
"].	c #A7A700",
"^.	c #929200",
"/.	c #727200",
"(.	c #515109",
"_.	c #949486",
":.	c #DBDBCF",
"<.	c #ABAB3B",
"[.	c #AEAE00",
"}.	c #B0B000",
"|.	c #B2B200",
"1.	c #B3B300",
"2.	c #A8A800",
"3.	c #9C9C00",
"4.	c #8E8E00",
"5.	c #787800",
"6.	c #585800",
"7.	c #5E5E36",
"8.	c #C8C8C5",
"9.	c #F6F6F6",
"0.	c #C3C39D",
"a.	c #AAAA2C",
"b.	c #A9A900",
"c.	c #A4A400",
"d.	c #9D9D00",
"e.	c #949400",
"f.	c #888800",
"g.	c #797900",
"h.	c #545418",
"i.	c #9B9B8E",
"j.	c #F5F5F4",
"k.	c #A2A22B",
"l.	c #9C9C02",
"m.	c #999900",
"n.	c #7B7B00",
"o.	c #686801",
"p.	c #646422",
"q.	c #92927D",
"r.	c #E5E5E4",
"s.	c #C6C6AC",
"t.	c #A5A55F",
"u.	c #939331",
"v.	c #88881D",
"w.	c #7F7F1C",
"x.	c #7E7E34",
"y.	c #909067",
"z.	c #B8B8AB",
"A.	c #ECECEC",
"B.	c #ECECEA",
"C.	c #D9D9D0",
"D.	c #CBCBBC",
"E.	c #C8C8BA",
"F.	c #D8D8D2",
"G.	c #F1F1F0",
". . . . . + @ # $ % & * . . . . ",
". . . = - ; > , ' ) ! ~ { . . . ",
". . ] ^ / ( _ : < [ } | 1 { . . ",
". * 2 3 4 _ 5 6 7 8 9 0 a b c . ",
". d e f _ _ g h 7 i j k l m n . ",
"* o p q r _ _ s t [ u v w x y z ",
"c A B C D E 4 _ F u k G H I J K ",
"c L M N O P Q D R S T U V W X Y ",
"c Z `  ...+.@.#.v $.%.&.*.=.-.;.",
"* >.,.'.U ).!.~.{.'.].^./.(._.= ",
". :.<.[.}.|.1.}.2.3.4.5.6.7.8.. ",
". 9.0.a.b.].c.d.e.f.g.=.h.i.9.. ",
". . j.0.k.l.m.^.f.n.o.p.q.r.. . ",
". . . j.s.t.u.v.w.x.y.z.A.. . . ",
". . . . * B.C.D.E.F.G.. . . . . ",
". . . . . . . . . . . . . . . . "};
