/* XPM */
static const char * jobsList_xpm[] = {
"16 16 164 2",
"  	c None",
". 	c #FFFFFF",
"+ 	c #F6F4F4",
"@ 	c #E4CBCB",
"# 	c #DEA9A9",
"$ 	c #DBB4B4",
"% 	c #E9E1E1",
"& 	c #F4F2F2",
"* 	c #E09090",
"= 	c #FF4444",
"- 	c #FF2B2B",
"; 	c #FE1C1C",
"> 	c #C86464",
", 	c #DED4D4",
"' 	c #D8B0B0",
") 	c #FF2C2C",
"! 	c #FF2626",
"~ 	c #FF2E2E",
"{ 	c #FF1212",
"] 	c #CC0B0B",
"^ 	c #A56F6F",
"/ 	c #EDECEC",
"( 	c #F7F7F7",
"_ 	c #CA7C7C",
": 	c #FF0303",
"< 	c #FF1414",
"[ 	c #FF1A1A",
"} 	c #FE0000",
"| 	c #BC0000",
"1 	c #853D3D",
"2 	c #DEDCDC",
"3 	c #F3F3F0",
"4 	c #E0E0CD",
"5 	c #D7D7BB",
"6 	c #DEDED1",
"7 	c #FEFEFE",
"8 	c #C48E8E",
"9 	c #DC0909",
"0 	c #F70000",
"a 	c #F00000",
"b 	c #CD0000",
"c 	c #920000",
"d 	c #774646",
"e 	c #DFDFDF",
"f 	c #E8E8DF",
"g 	c #D6D678",
"h 	c #ECEC33",
"i 	c #F3F333",
"j 	c #CBCB47",
"k 	c #C4C4A0",
"l 	c #F6F6F6",
"m 	c #D0BEBE",
"n 	c #AB2F2F",
"o 	c #B70000",
"p 	c #AF0000",
"q 	c #900000",
"r 	c #6F1C1C",
"s 	c #9E8F8F",
"t 	c #F6F6F5",
"u 	c #D0D087",
"v 	c #F9F913",
"w 	c #FFFF16",
"x 	c #FFFF2C",
"y 	c #EFEF1E",
"z 	c #A4A42D",
"A 	c #C2C3B1",
"B 	c #F3F3F3",
"C 	c #BDA2A2",
"D 	c #954B4B",
"E 	c #812A2A",
"F 	c #7C3D3D",
"G 	c #A38F8F",
"H 	c #E8E8E8",
"I 	c #EAEAE4",
"J 	c #CDCD4C",
"K 	c #FEFE00",
"L 	c #FFFF06",
"M 	c #FFFF1A",
"N 	c #D6D60F",
"O 	c #8E8E01",
"P 	c #979775",
"Q 	c #F9F9F9",
"R 	c #FCFCFC",
"S 	c #D3D4CD",
"T 	c #BFC2B5",
"U 	c #CFCFCA",
"V 	c #F4F4F4",
"W 	c #ECECE8",
"X 	c #C0C04E",
"Y 	c #DFDF00",
"Z 	c #E6E600",
"` 	c #D6D600",
" .	c #ADAD00",
"..	c #717101",
"+.	c #8C8B75",
"@.	c #C6DBC6",
"#.	c #6BCC6B",
"$.	c #55CE55",
"%.	c #6FC06F",
"&.	c #AEC7AE",
"*.	c #F5F5F5",
"=.	c #F5F5F4",
"-.	c #BBBB7A",
";.	c #B5B50C",
">.	c #B6B600",
",.	c #A1A100",
"'.	c #797900",
").	c #646430",
"!.	c #BFBBBB",
"~.	c #D4E1D4",
"{.	c #50D750",
"].	c #21FF21",
"^.	c #2AFF2A",
"/.	c #17F317",
"(.	c #2DAF2D",
"_.	c #AFC3AF",
":.	c #DEDED3",
"<.	c #AEAE6B",
"[.	c #969631",
"}.	c #7D7D1F",
"|.	c #6F6F39",
"1.	c #A3A399",
"2.	c #9ECF9E",
"3.	c #10F410",
"4.	c #1FFF1F",
"5.	c #2CFF2C",
"6.	c #16FF16",
"7.	c #01BF01",
"8.	c #619D61",
"9.	c #EBECEB",
"0.	c #EDEDEB",
"a.	c #D9D9D0",
"b.	c #C9C9BE",
"c.	c #D5D5D1",
"d.	c #93CA93",
"e.	c #09EB09",
"f.	c #02FF02",
"g.	c #0DFF0D",
"h.	c #00F100",
"i.	c #00BA00",
"j.	c #3D893D",
"k.	c #DCDFDC",
"l.	c #B1CEB1",
"m.	c #1BC81B",
"n.	c #00E800",
"o.	c #00EA00",
"p.	c #00D300",
"q.	c #009F00",
"r.	c #468146",
"s.	c #DFE0DF",
"t.	c #DFE5DF",
"u.	c #61B461",
"v.	c #0FB70F",
"w.	c #00A300",
"x.	c #268726",
"y.	c #96AA96",
"z.	c #D8E0D8",
"A.	c #8DBA8D",
"B.	c #59A559",
"C.	c #69A369",
"D.	c #ABBFAB",
"E.	c #F0F0F0",
"F.	c #EBEDEB",
"G.	c #F1F2F1",
". . . . . . . . . + @ # $ % . . ",
". . . . . . . . & * = - ; > , . ",
". . . . . . . . ' ) ! ~ { ] ^ / ",
". . . . . . . ( _ : < [ } | 1 2 ",
". . 3 4 5 6 ( 7 8 9 0 a b c d e ",
". f g h i j k l m n o p q r s l ",
"t u v w x y z A B C D E F G H . ",
"I J K L M N O P Q R S T U V . . ",
"W X Y Z `  ...+.B @.#.$.%.&.*.. ",
"=.-.;.>.,.'.).!.~.{.].^./.(._.7 ",
". :.<.[.}.|.1.V 2.3.4.5.6.7.8.9.",
". . 0.a.b.c.l . d.e.f.g.h.i.j.k.",
". . . . . . . . l.m.n.o.p.q.r.s.",
". . . . . . . . t.u.v.i.w.x.y.l ",
". . . . . . . . . z.A.B.C.D.E.. ",
". . . . . . . . . . Q F.G.. . . "};
