/* XPM */
static char * labelSelected_xpm[] = {
"16 16 14 1",
" 	c None",
".	c #FFFFFF",
"+	c #0000FF",
"@	c #FEFEFF",
"#	c #CFCFFF",
"$	c #D3D3FF",
"%	c #EDEDFF",
"&	c #C6C6FF",
"*	c #9393FF",
"=	c #D1D1FF",
"-	c #DADAFF",
";	c #3A3AFF",
">	c #0505FF",
",	c #1515FF",
"................",
"................",
"..+++++++.......",
"..@#+++$@.......",
"....+++.........",
"....+++.........",
"....+++.........",
"....+++.........",
"....+++.........",
"....+++....%+...",
"....+++....&+...",
"....+++....*+...",
"..@=+++-..@;+...",
"..+++++++>,++...",
"................",
"................"};
