/* XPM */
static const char * labelHidden_xpm[] = {
"16 16 14 1",
" 	c None",
".	c #FFFFFF",
"+	c #000000",
"@	c #FEFEFE",
"#	c #CFCFCF",
"$	c #D3D3D3",
"%	c #EDEDED",
"&	c #C6C6C6",
"*	c #939393",
"=	c #D1D1D1",
"-	c #DADADA",
";	c #3A3A3A",
">	c #050505",
",	c #151515",
"................",
"................",
"..+++++++.......",
"..@#+.+$@.......",
"....+.+.........",
"....+.+.........",
"....+.+.........",
"....+.+.........",
"....+.+.........",
"....+.+....%+...",
"....+.+....&+...",
"....+.+....*+...",
"..@=+.+-..@;+...",
"..+++++++>,++...",
"................",
"................"};
