/* XPM */
static const char * labelHiddenSelected_xpm[] = {
"16 16 15 1",
" 	c None",
".	c #FFFFFF",
"+	c #000000",
"@	c #FEFEFE",
"#	c #CFCFCF",
"$	c #A3A3FF",
"%	c #D3D3D3",
"&	c #EDEDED",
"*	c #C6C6C6",
"=	c #939393",
"-	c #D1D1D1",
";	c #DADADA",
">	c #3A3A3A",
",	c #050505",
"'	c #151515",
"................",
"................",
"..+++++++.......",
"..@#$$+%@.......",
"....+$$.........",
"....$$+.........",
"....+$$.........",
"....$$+.........",
"....+$$.........",
"....$$+....&+...",
"....+$$....*+...",
"....$$+....=+...",
"..@-+$$;..@>+...",
"..+++++++,'++...",
"................",
"................"};
