/* XPM */
static const char * map_xpm[] = {
"16 16 55 1",
" 	c None",
".	c #FFFFFF",
"+	c #0000D9",
"@	c #00001D",
"#	c #000001",
"$	c #110011",
"%	c #DA00DA",
"&	c #1F001F",
"*	c #110001",
"=	c #DA0000",
"-	c #0000D7",
";	c #000010",
">	c #100010",
",	c #DB00DB",
"'	c #1F001E",
")	c #100001",
"!	c #0000E8",
"~	c #000011",
"{	c #010001",
"]	c #1E001E",
"^	c #0000E9",
"/	c #0000DA",
"(	c #0000D8",
"_	c #000000",
":	c #0000DB",
"<	c #00001F",
"[	c #00000E",
"}	c #0E000E",
"|	c #100020",
"1	c #100011",
"2	c #E900E9",
"3	c #D900D9",
"4	c #00001B",
"5	c #0000C9",
"6	c #10000E",
"7	c #100000",
"8	c #1F0000",
"9	c #D90000",
"0	c #1F0001",
"a	c #0000EA",
"b	c #EB0000",
"c	c #DB0000",
"d	c #200100",
"e	c #1F0D00",
"f	c #EC0000",
"g	c #1F1E00",
"h	c #CCCC00",
"i	c #110000",
"j	c #210F00",
"k	c #F7F700",
"l	c #130001",
"m	c #210010",
"n	c #200000",
"o	c #EA0000",
"p	c #130011",
"........+@#$%&*=",
".........-;>%,')",
".........!~{],,&",
"^/++++++/(;_{]%%",
":<;;;;;;;[#__{}>",
"|1>>>>}{________",
"2%333%%]{___#[;;",
",&>>>&,,]{_#45++",
"6)777)',,]{;-...",
"8==9==0',%>~a...",
"bcdedc=*&%$~a...",
"fdghgd=i$3$~a...",
"bjhkhj9i$3$~a...",
"fdghgd=l&%$~a...",
"bcdedc=m%%>~a...",
"nofbfo8p%&{~a..."};
