/* XPM */
static const char * mapSelected_xpm[] = {
"16 16 52 1",
" 	c None",
".	c #FFFFFF",
"+	c #000000",
"@	c #1D1DFB",
"#	c #0101FD",
"$	c #1100FD",
"%	c #DA00FD",
"&	c #1F00FD",
"*	c #1100EC",
"=	c #DA0020",
"-	c #1010FD",
";	c #1000FD",
">	c #DB00FD",
",	c #1F00FB",
"'	c #1000EC",
")	c #1111FD",
"!	c #0100FD",
"~	c #1E00FD",
"{	c #0000FD",
"]	c #1F1FFD",
"^	c #0E0EFD",
"/	c #0E00FD",
"(	c #200EFD",
"_	c #1101FD",
":	c #E900FD",
"<	c #D900FD",
"[	c #1B1BFB",
"}	c #1000FB",
"|	c #1000EB",
"1	c #1F00DB",
"2	c #D90022",
"3	c #1F00DC",
"4	c #EB0010",
"5	c #DB001F",
"6	c #2001DA",
"7	c #1F0DDB",
"8	c #EC0010",
"9	c #1F1EDB",
"0	c #CCCC2E",
"a	c #DA0022",
"b	c #1100EB",
"c	c #EB0011",
"d	c #210FDB",
"e	c #CCCC2F",
"f	c #F7F704",
"g	c #D90023",
"h	c #1300EB",
"i	c #2100EC",
"j	c #2000DA",
"k	c #EA0011",
"l	c #EC000E",
"m	c #1300FB",
"........+@#$%&*=",
".........+-;%>,'",
".........+)!~>>&",
"++++++++++-{!~%%",
"+]-------^#{{!/;",
"(_;;;;/!{{{{{{{{",
":%<<<%%~!{{{#^--",
">&;;;&>>~!{#[+++",
"}'|||',>>~!-+...",
"1==2==3,>%;)+...",
"456765=*&%$)+...",
"869096ab$<$)+...",
"cdefedgb$<$)+...",
"869096ah&%$)+...",
"456765=i%%;)+...",
"jkl4lk1m%&!)+..."};
