/* XPM */
static const char * mifit_icon[] = {
"32 32 595 2",
"  	c None",
". 	c #000000",
"+ 	c #00000D",
"@ 	c #000264",
"# 	c #0004BC",
"$ 	c #0004C5",
"% 	c #0004CE",
"& 	c #0006FF",
"* 	c #0004BB",
"= 	c #000269",
"- 	c #000136",
"; 	c #00001A",
"> 	c #000013",
", 	c #000003",
"' 	c #000008",
") 	c #000270",
"! 	c #0005F0",
"~ 	c #0004D0",
"{ 	c #0206BC",
"] 	c #05098C",
"^ 	c #0307BC",
"/ 	c #0207C5",
"( 	c #0106CA",
"_ 	c #0005E8",
": 	c #00039A",
"< 	c #00038F",
"[ 	c #000258",
"} 	c #000140",
"| 	c #0005D8",
"1 	c #0003A4",
"2 	c #00023B",
"3 	c #060836",
"4 	c #0C0E36",
"5 	c #1A1C2F",
"6 	c #242510",
"7 	c #22242F",
"8 	c #212336",
"9 	c #1E2036",
"0 	c #191B46",
"a 	c #0C0F91",
"b 	c #0005EC",
"c 	c #0005F1",
"d 	c #0005EA",
"e 	c #000388",
"f 	c #000015",
"g 	c #0003A5",
"h 	c #0005EF",
"i 	c #0004B8",
"j 	c #080A51",
"k 	c #1E2008",
"l 	c #2A2B00",
"m 	c #3A3B00",
"n 	c #444600",
"o 	c #4A4C00",
"p 	c #4D4F00",
"q 	c #404203",
"r 	c #303117",
"s 	c #1E2035",
"t 	c #121552",
"u 	c #040768",
"v 	c #0004AF",
"w 	c #0005F5",
"x 	c #00039B",
"y 	c #0005E9",
"z 	c #0005EE",
"A 	c #0006F0",
"B 	c #050AD5",
"C 	c #212564",
"D 	c #46480B",
"E 	c #626300",
"F 	c #6E7100",
"G 	c #7B7D00",
"H 	c #7E7F00",
"I 	c #787A00",
"J 	c #696B00",
"K 	c #595B00",
"L 	c #3E400B",
"M 	c #212346",
"N 	c #0F126F",
"O 	c #030787",
"P 	c #0005E2",
"Q 	c #000394",
"R 	c #0004C7",
"S 	c #070A51",
"T 	c #0E1299",
"U 	c #0107F8",
"V 	c #0A10DF",
"W 	c #555843",
"X 	c #8F9101",
"Y 	c #A4A702",
"Z 	c #B0B303",
"` 	c #A6A912",
" .	c #757952",
"..	c #767940",
"+.	c #595D52",
"@.	c #333680",
"#.	c #0A10DA",
"$.	c #0107F0",
"%.	c #0005F3",
"&.	c #0004CA",
"*.	c #000133",
"=.	c #00025A",
"-.	c #1B1C08",
";.	c #282B3A",
">.	c #0E13D4",
",.	c #080EED",
"'.	c #444890",
").	c #959737",
"!.	c #C9CB0B",
"~.	c #CCCF13",
"{.	c #63678D",
"].	c #1319E8",
"^.	c #2227D4",
"/.	c #0D12EC",
"(.	c #1117D4",
"_.	c #0C11D1",
":.	c #0F139F",
"<.	c #080C88",
"[.	c #000283",
"}.	c #0005DE",
"|.	c #000150",
"1.	c #080A52",
"2.	c #272800",
"3.	c #454608",
"4.	c #414568",
"5.	c #090FEF",
"6.	c #080EF4",
"7.	c #2B30CC",
"8.	c #797E7D",
"9.	c #5A5FA1",
"0.	c #0F14EF",
"a.	c #2E33CC",
"b.	c #585D95",
"c.	c #696D6A",
"d.	c #696C3B",
"e.	c #4A4C31",
"f.	c #31331A",
"g.	c #191B13",
"h.	c #02051C",
"i.	c #00039C",
"j.	c #000387",
"k.	c #000010",
"l.	c #0004A7",
"m.	c #181A1F",
"n.	c #353600",
"o.	c #565800",
"p.	c #80820D",
"q.	c #585D84",
"r.	c #0A10F1",
"s.	c #1218EB",
"t.	c #090FF5",
"u.	c #5E62A0",
"v.	c #A1A55D",
"w.	c #C0C33A",
"x.	c #D3D71A",
"y.	c #CBCE06",
"z.	c #747600",
"A.	c #484900",
"B.	c #0F1003",
"C.	c #00025F",
"D.	c #0005EB",
"E.	c #00026A",
"F.	c #000006",
"G.	c #1F2003",
"H.	c #646600",
"I.	c #989902",
"J.	c #B5B719",
"K.	c #5D6298",
"L.	c #0A10F4",
"M.	c #2F34CF",
"N.	c #A0A45E",
"O.	c #EEF111",
"P.	c #FAFD05",
"Q.	c #F3F605",
"R.	c #DEE004",
"S.	c #B6B903",
"T.	c #828301",
"U.	c #545500",
"V.	c #2E2F00",
"W.	c #141500",
"X.	c #0005F4",
"Y.	c #0004C2",
"Z.	c #000272",
"`.	c #020555",
" +	c #202100",
".+	c #3E3F00",
"++	c #6D6E00",
"@+	c #A1A302",
"#+	c #9FA23E",
"$+	c #2C32CF",
"%+	c #3439CA",
"&+	c #4A4FB4",
"*+	c #151BE9",
"=+	c #7E8380",
"-+	c #EBEE14",
";+	c #F6F905",
">+	c #E5E804",
",+	c #BFC103",
"'+	c #8B8D01",
")+	c #575A03",
"!+	c #2B2C1E",
"~+	c #0D0F59",
"{+	c #00025B",
"]+	c #00027B",
"^+	c #0005F6",
"/+	c #0005F2",
"(+	c #00038A",
"_+	c #020578",
":+	c #9D9F07",
"<+	c #5E638B",
"[+	c #6D7190",
"}+	c #E3E61B",
"|+	c #989C67",
"1+	c #5459AA",
"2+	c #73778C",
"3+	c #E6E914",
"4+	c #B9BB0A",
"5+	c #6F7233",
"6+	c #393D5A",
"7+	c #1114A3",
"8+	c #0106E9",
"9+	c #000380",
"0+	c #000017",
"a+	c #191B35",
"b+	c #606208",
"c+	c #6A6D4C",
"d+	c #353ABB",
"e+	c #161CE5",
"f+	c #A2A659",
"g+	c #FBFE05",
"h+	c #F8FB07",
"i+	c #A5A95A",
"j+	c #0F15EF",
"k+	c #767A85",
"l+	c #C7C91C",
"m+	c #6D7167",
"n+	c #1D21C5",
"o+	c #060BEB",
"p+	c #0408EC",
"q+	c #0807D4",
"r+	c #0604D0",
"s+	c #0904BE",
"t+	c #11027A",
"u+	c #100266",
"v+	c #0B026D",
"w+	c #020159",
"x+	c #000385",
"y+	c #0005E7",
"z+	c #0005D9",
"A+	c #0003A8",
"B+	c #000147",
"C+	c #0F1275",
"D+	c #333408",
"E+	c #42453A",
"F+	c #1A1FCC",
"G+	c #1F24D2",
"H+	c #6A6F82",
"I+	c #DADD19",
"J+	c #F7FA05",
"K+	c #EDF011",
"L+	c #6F738F",
"M+	c #0C12F0",
"N+	c #4448AB",
"O+	c #0D12EA",
"P+	c #1415D5",
"Q+	c #261C99",
"R+	c #34155B",
"S+	c #350A39",
"T+	c #310136",
"U+	c #36012F",
"V+	c #390008",
"W+	c #390000",
"X+	c #2B0000",
"Y+	c #210000",
"Z+	c #12001D",
"`+	c #0004B0",
" @	c #0005F9",
".@	c #0004CF",
"+@	c #0005CE",
"@@	c #1E2031",
"#@	c #272A74",
"$@	c #0207F8",
"%@	c #151ADB",
"&@	c #8F9243",
"*@	c #DBDD05",
"=@	c #ECEF05",
"-@	c #F2F505",
";@	c #DEE117",
">@	c #626793",
",@	c #070DF4",
"'@	c #0409F9",
")@	c #0A0EEC",
"!@	c #36248B",
"~@	c #5A2221",
"{@	c #661103",
"]@	c #660100",
"^@	c #6B0000",
"/@	c #6E0000",
"(@	c #680000",
"_@	c #5D0000",
":@	c #4F0000",
"<@	c #2A0003",
"[@	c #110026",
"}@	c #000381",
"|@	c #0004B4",
"1@	c #0005D0",
"2@	c #13154D",
"3@	c #151996",
"4@	c #050BEE",
"5@	c #3E427A",
"6@	c #96980C",
"7@	c #BDBE03",
"8@	c #D0D204",
"9@	c #DADD04",
"0@	c #DDDF04",
"a@	c #D7DA04",
"b@	c #B7BA1A",
"c@	c #2428CA",
"d@	c #0106FB",
"e@	c #170DCE",
"f@	c #51115B",
"g@	c #85080B",
"h@	c #950000",
"i@	c #A10000",
"j@	c #A50000",
"k@	c #9D0000",
"l@	c #8E0000",
"m@	c #780000",
"n@	c #5B0000",
"o@	c #430000",
"p@	c #290008",
"q@	c #10002A",
"r@	c #000262",
"s@	c #0005ED",
"t@	c #0004AE",
"u@	c #060973",
"v@	c #090EBA",
"w@	c #0A0FCF",
"x@	c #41443D",
"y@	c #B2B403",
"z@	c #ABAE03",
"A@	c #7C7C35",
"B@	c #1C1CCC",
"C@	c #0C0DE5",
"D@	c #130CD8",
"E@	c #1909D0",
"F@	c #1306DF",
"G@	c #67026A",
"H@	c #C00008",
"I@	c #D10000",
"J@	c #D30000",
"K@	c #CF0000",
"L@	c #C00000",
"M@	c #A70000",
"N@	c #7D000B",
"O@	c #460143",
"P@	c #220273",
"Q@	c #0C04B1",
"R@	c #060392",
"S@	c #0005F7",
"T@	c #000255",
"U@	c #0509A9",
"V@	c #0309E5",
"W@	c #272B46",
"X@	c #747608",
"Y@	c #3A3875",
"Z@	c #391B79",
"`@	c #651635",
" #	c #3E0899",
".#	c #0205FC",
"+#	c #1D05DC",
"@#	c #990256",
"##	c #E70008",
"$#	c #F10000",
"%#	c #ED0000",
"&#	c #E20000",
"*#	c #C70008",
"=#	c #6C025E",
"-#	c #1305D9",
";#	c #0705E9",
">#	c #0904D3",
",#	c #0105EC",
"'#	c #0005E3",
")#	c #050976",
"!#	c #1E1F0D",
"~#	c #3B3A33",
"{#	c #1312C2",
"]#	c #130DC9",
"^#	c #561438",
"/#	c #8F0D00",
"(#	c #860240",
"_#	c #1F05DA",
":#	c #1105EC",
"<#	c #3804C5",
"[#	c #CC0130",
"}#	c #FC0000",
"|#	c #FB0000",
"1#	c #E50010",
"2#	c #800271",
"3#	c #2604CE",
"4#	c #0B05ED",
"5#	c #1604CD",
"6#	c #290269",
"7#	c #120387",
"8#	c #0404B0",
"9#	c #000271",
"0#	c #0004D4",
"a#	c #070808",
"b#	c #101100",
"c#	c #272810",
"d#	c #121485",
"e#	c #0407ED",
"f#	c #200C94",
"g#	c #600617",
"h#	c #970100",
"i#	c #980257",
"j#	c #3404C9",
"k#	c #2E04D0",
"l#	c #C1013D",
"m#	c #FE0000",
"n#	c #F60008",
"o#	c #8C0271",
"p#	c #1305EB",
"q#	c #1305E8",
"r#	c #590380",
"s#	c #650133",
"t#	c #4D000B",
"u#	c #2B0013",
"v#	c #0C015F",
"w#	c #0005FD",
"x#	c #0005DD",
"y#	c #000251",
"z#	c #07081C",
"A#	c #0B0C03",
"B#	c #0C0D00",
"C#	c #080A53",
"D#	c #0106EA",
"E#	c #0305EB",
"F#	c #290260",
"G#	c #690003",
"H#	c #8D0270",
"I#	c #70038E",
"J#	c #C60137",
"K#	c #B80145",
"L#	c #3204CC",
"M#	c #1605E8",
"N#	c #6C0387",
"O#	c #B30010",
"P#	c #8B0000",
"Q#	c #580000",
"R#	c #320000",
"S#	c #0E014F",
"T#	c #000278",
"U#	c #0005DB",
"V#	c #0005FB",
"W#	c #00001C",
"X#	c #000389",
"Y#	c #0C03A8",
"Z#	c #3B001E",
"`#	c #EC0010",
" $	c #770387",
".$	c #2005DD",
"+$	c #2F04CE",
"@$	c #1505E9",
"#$	c #7E027E",
"$$	c #D90010",
"%$	c #C30000",
"&$	c #0F013F",
"*$	c #000395",
"=$	c #0005FA",
"-$	c #0005FE",
";$	c #0005F8",
">$	c #00039D",
",$	c #14025F",
"'$	c #3A0003",
")$	c #EE0010",
"!$	c #5903A4",
"~$	c #2804D6",
"{$	c #970163",
"]$	c #B60133",
"^$	c #B70008",
"/$	c #890000",
"($	c #2F0000",
"_$	c #0E0255",
":$	c #000277",
"<$	c #0004D1",
"[$	c #000383",
"}$	c #1B0010",
"|$	c #F50000",
"1$	c #9A0264",
"2$	c #0705F7",
"3$	c #0105FD",
"4$	c #0A05F4",
"5$	c #0D05F0",
"6$	c #2704D0",
"7$	c #720257",
"8$	c #760008",
"9$	c #4C0000",
"0$	c #0C0141",
"a$	c #0005DF",
"b$	c #000026",
"c$	c #0003B6",
"d$	c #00001F",
"e$	c #150000",
"f$	c #CE0000",
"g$	c #E70000",
"h$	c #E40010",
"i$	c #6D038F",
"j$	c #4E03AE",
"k$	c #68038F",
"l$	c #0A05F3",
"m$	c #0905F3",
"n$	c #1E04CB",
"o$	c #460150",
"p$	c #3D0008",
"q$	c #200003",
"r$	c #070268",
"s$	c #000021",
"t$	c #050000",
"u$	c #830000",
"v$	c #AC0000",
"w$	c #BF000D",
"x$	c #6F027E",
"y$	c #6C0388",
"z$	c #D50010",
"A$	c #C80010",
"B$	c #670275",
"C$	c #2004CA",
"D$	c #1704CB",
"E$	c #0F04CC",
"F$	c #1F0153",
"G$	c #120015",
"H$	c #00038C",
"I$	c #600000",
"J$	c #7C000B",
"K$	c #5A026E",
"L$	c #1105E6",
"M$	c #4603A1",
"N$	c #AB001F",
"O$	c #BD0000",
"P$	c #AE0000",
"Q$	c #900008",
"R$	c #5D012F",
"S$	c #290384",
"T$	c #0105F7",
"U$	c #0604CC",
"V$	c #09013F",
"W$	c #000391",
"X$	c #140003",
"Y$	c #3B0010",
"Z$	c #2D027B",
"`$	c #1304D3",
" %	c #1C04C6",
".%	c #680140",
"+%	c #8C0003",
"@%	c #7A0000",
"#%	c #660000",
"$%	c #29013A",
"%%	c #0505D6",
"&%	c #0004B7",
"*%	c #00001D",
"=%	c #0004AB",
"-%	c #000131",
";%	c #120012",
">%	c #12038C",
",%	c #0405ED",
"'%	c #300266",
")%	c #550008",
"!%	c #3F0000",
"~%	c #1E000A",
"{%	c #080150",
"]%	c #0004B5",
"^%	c #00027C",
"/%	c #0004BA",
"(%	c #000287",
"_%	c #0105EF",
":%	c #0105EE",
"<%	c #130381",
"[%	c #2C000D",
"}%	c #1E0013",
"|%	c #130016",
"1%	c #09013C",
"2%	c #0004BE",
"3%	c #000384",
"4%	c #00000B",
"5%	c #0005E6",
"6%	c #080274",
"7%	c #0C0263",
"8%	c #0C0265",
"9%	c #09026D",
"0%	c #060389",
"a%	c #000273",
"b%	c #00013B",
"c%	c #000390",
"d%	c #0005DA",
". + @ # $ $ $ % & % $ $ * = - ; > , . . . . . . . . . . . . . . ",
"' ) ! ~ $ $ $ { ] ^ / / ( _ $ : < [ + . . . . . . . . . . . . . ",
"} | & 1 2 3 4 5 6 7 8 9 0 a / b c d e f . . . . . . . . . . . . ",
"g h % i j k l m n o p o q r s t u v w x > . . . . . . . . . . . ",
"y z i A B C D E F G H I J K L M N O P & Q - ' . . . . . . . . . ",
"~ R S T U V W X Y Z `  ...+.@.#.U $.! %.b &.*.. . . . . . . . . ",
"~ =.-.;.>.,.'.).!.~.{.].^./.& (._.:.<.[.}.h |.. . . . . . . . . ",
"y 1.2.3.4.5.6.7.8.9.& 0.a.b.c.d.e.f.g.h.i.! j.k.. . . . . . . . ",
"l.m.n.o.p.q.r.s.t.& u.v.w.x.y.Y z.A.2.B.C.d D.E.F.. . . . . . . ",
"C.G.m H.I.J.K.L.& M.N.O.P.Q.R.S.T.U.V.W.k.< X.Y.Z.[ k.. . . . . ",
"`. +.+++@+#+$+%+&+& *+=+-+;+>+,+'+)+!+~+{+]+%.w ^+/+(+k.. . . . ",
"_+k .+++:+<+& [+}+|+1+& 2+3+>+4+5+6+7+8+D.| & & & X.& 9+- 0+, . ",
"R a+m b+c+d+e+f+g+h+i+j+L.k+l+m+n+o+p+q+r+s+t+u+v+w+x+y+z+A+B+' ",
"& C+D+E+F+G+H+I+J+P.K+L+& M+N+O+P+Q+R+S+T+U+V+W+X+Y+Z+`+&  @.@*.",
"+@^ @@#@$@%@&@*@=@-@Q.;@>@,@'@)@!@~@{@]@^@/@(@_@:@W+<@[@}@|@b =.",
"~ 1@2@3@4@5@6@7@8@9@0@a@b@c@& d@e@f@g@h@i@j@k@l@m@n@o@p@q@r@s@t@",
"D.D.u@v@w@x@z.X Y Z y@z@A@B@C@D@E@F@G@H@I@J@K@L@M@N@O@P@Q@R@_ S@",
"~ ~ T@U@V@W@o E F G H X@Y@& Z@`@ #.#+#@###$#%#&#*#=#-#;#>#,#w %.",
"# ~ e '#)#!#l m n o p ~#{#]#^#/#(#_#:#<#[#}#|#1#2#3#4#5#6#7#8#h ",
"9#& z+0#C.a#b# +2.l c#d#e#f#g#h#H@i#j#k#l#m#n#o#p#q#r#s#t#u#v#s@",
"k.j.z w#x#e y#z#A#B#C#D#E#F#G#i@I@##H#& I#J#K#L#M#N#O#P#Q#R#S#d ",
". k.T#U#! V#^+A+T@W#X#! Y#Z#/@j@J@$#`# $& .$+$@$#$$$%$l@n@R#&$0#",
". . ' - *$=$-$;$/+>$y d ,$'$(@k@K@%#|#)$!$& -$~${$]$^$/$Q#($_$b ",
". . . . > :$<$& w#_ s@[$}$W+_@l@L@&#|$}#1$2$3$4$5$6$7$8$9$X+0$a$",
". . . . . , b$A+^+;$c$d$e$X+:@m@M@f$g$h$i$& j$k$l$m$n$o$p$q$r$& ",
". . . . . . . s$v %.v s$t$Y+W+n@u$v$w$x$& y$z$A$B$C$D$E$F$G$}@h ",
". . . . . . . , [ h %.H$k.e$X+o@I$J$K$L$M$N$O$P$Q$R$S$T$U$V$W$! ",
". . . . . . . . W#>$! & x+W#X$X+Y$Z$`$ %.%+%/$@%#%9$$%%%w &%X.& ",
". . . . . . . . , *%j.& h =%-%;%>%& ,%'%)%n@Q#9$!%($~%{%]%& ! H$",
". . . . . . . . . . k.^%}.;$/%(%_%:%<%[%R#R#($<@}%|%1%2%h & 3%+ ",
". . . . . . . . . . . 4%@ | ^+5%& .@6%_$_$7%8%9%0%< $ & x#a%k.. ",
". . . . . . . . . . . . ' b%c%s@X.h & z z & & & z s@s@d%r@' . . "};
