/* XPM */
static const char * modelSelected_xpm[] = {
"16 16 72 1",
" 	c None",
".	c #316AC5",
"+	c #3069C4",
"@	c #2D63B8",
"#	c #2D62B7",
"$	c #070F1B",
"%	c #10140E",
"&	c #131B1B",
"*	c #2B5DAC",
"=	c #151D1B",
"-	c #C9CA01",
";	c #D9DA01",
">	c #232A1A",
",	c #DADB01",
"'	c #161E1B",
")	c #3069C3",
"!	c #DBDC01",
"~	c #FAFA00",
"{	c #29579F",
"]	c #31340D",
"^	c #2B5DAB",
"/	c #22250D",
"(	c #EAEA00",
"_	c #EDED00",
":	c #14180E",
"<	c #EBEB00",
"[	c #FBFB00",
"}	c #2E63B9",
"|	c #ECEC00",
"1	c #2B5CAC",
"2	c #141426",
"3	c #2B5CAB",
"4	c #2D62B6",
"5	c #12160E",
"6	c #230E1A",
"7	c #CB0202",
"8	c #21130D",
"9	c #29579E",
"0	c #DADA00",
"a	c #21070D",
"b	c #DB0001",
"c	c #FA1000",
"d	c #ECDA00",
"e	c #DADB02",
"f	c #161D25",
"g	c #2756A1",
"h	c #D9DA02",
"i	c #21250D",
"j	c #EC0000",
"k	c #FA0000",
"l	c #EC1000",
"m	c #ECDB00",
"n	c #E8E801",
"o	c #DEE20D",
"p	c #D8D910",
"q	c #1010C4",
"r	c #030739",
"s	c #C9CA10",
"t	c #FB0000",
"u	c #21080D",
"v	c #21240D",
"w	c #DBDB00",
"x	c #1F1F01",
"y	c #141C1A",
"z	c #111922",
"A	c #01017C",
"B	c #0000D3",
"C	c #CE070E",
"D	c #220E1B",
"E	c #2A5CAC",
"F	c #060E28",
"G	c #030773",
".+@#@+.....+@@+.",
".@$%&*+...+*&&*+",
".@=-;>*+.+*>,;'@",
".+*>,,>*)*>!~,'@",
"..+*>,,>{>!~!>*+",
"...+*>,,]!~!>*+.",
"....+^/(_~!>*+..",
".....#:<[!>*+...",
".+}+.#:<|/^+.+@#",
"+123@4:<<:#.+*&5",
"3678&9/||/^)*>;0",
"abcd,]![[efgfh,i",
"jklm~|<nopqrqs>^",
"tbuv,wxy{zABAz*+",
"CD3^&%$E)EFGFE+.",
"#@++@#@+.+@#@+.."};
