/* XPM */
static const char * model_xpm[] = {
"16 16 115 2",
"  	c None",
". 	c #FFFFFF",
"+ 	c #FCFCFC",
"@ 	c #E3E3E3",
"# 	c #DFDFDF",
"$ 	c #FBFBFB",
"% 	c #E5E5E5",
"& 	c #404040",
"* 	c #363625",
"= 	c #4C4C3B",
"- 	c #CDCDCC",
"; 	c #FAFAFA",
"> 	c #4D4D3C",
", 	c #4E4E3C",
"' 	c #A8A809",
") 	c #BFBF08",
"! 	c #5F5F37",
"~ 	c #CECECC",
"{ 	c #C2C208",
"] 	c #C0C009",
"^ 	c #51513C",
"/ 	c #E4E4E4",
"( 	c #CCCCCB",
"_ 	c #F5F5F5",
": 	c #C7C708",
"< 	c #EDED02",
"[ 	c #C3C308",
"} 	c #5D5D36",
"| 	c #B3B3B0",
"1 	c #EEEE02",
"2 	c #C3C307",
"3 	c #5F5F1B",
"4 	c #C8C807",
"5 	c #C9C9C8",
"6 	c #4E4E1E",
"7 	c #DADA03",
"8 	c #E0E002",
"9 	c #EFEF02",
"0 	c #FEFEFE",
"a 	c #DEDEDE",
"b 	c #3C3C21",
"c 	c #DADA02",
"d 	c #F2F201",
"e 	c #C7C706",
"f 	c #E8E8E8",
"g 	c #FDFDFD",
"h 	c #3D3D22",
"i 	c #DDDD02",
"j 	c #4F4F1E",
"k 	c #E0E0E0",
"l 	c #CDCDCD",
"m 	c #605353",
"n 	c #C9C9C9",
"o 	c #E2E2E2",
"p 	c #DBDBDB",
"q 	c #3D3D21",
"r 	c #383823",
"s 	c #C8C7C7",
"t 	c #5D3737",
"u 	c #AE0C0C",
"v 	c #4B3220",
"w 	c #4C4B3A",
"x 	c #AFAFAC",
"y 	c #4E4E1D",
"z 	c #C0C008",
"A 	c #BDBD04",
"B 	c #4C1F1F",
"C 	c #C70707",
"D 	c #EF1902",
"E 	c #DCBC03",
"F 	c #C4C307",
"G 	c #C7C705",
"H 	c #F3F302",
"I 	c #F3F303",
"J 	c #4B4B44",
"K 	c #B0B0B1",
"L 	c #C1C107",
"M 	c #4B4B1F",
"N 	c #DD0202",
"O 	c #F00202",
"P 	c #DD1902",
"Q 	c #DCC002",
"R 	c #F0EF02",
"S 	c #DCDC02",
"T 	c #D9D902",
"U 	c #D8D807",
"V 	c #D1D11B",
"W 	c #BCBC1B",
"X 	c #1E1E9D",
"Y 	c #1B1B58",
"Z 	c #1D1D9D",
"` 	c #A8A81C",
" .	c #5D5D37",
"..	c #C8C8C7",
"+.	c #F20303",
"@.	c #4C201F",
"#.	c #4C491F",
"$.	c #C2C207",
"%.	c #C0C003",
"&.	c #3A3A08",
"*.	c #4B4B36",
"=.	c #B4B4B0",
"-.	c #454541",
";.	c #080879",
">.	c #0404B4",
",.	c #454542",
"'.	c #BD2323",
").	c #5F3B3B",
"!.	c #C7C7C7",
"~.	c #363624",
"{.	c #3C3C3B",
"].	c #CCCCCC",
"^.	c #CCCCCD",
"/.	c #3B3B4C",
"(.	c #24246E",
". + @ # @ $ . . . . . $ @ @ $ . ",
". % & * = - ; . . . ; - > > - + ",
". % , ' ) ! ~ ; . ; ~ ! { ] ^ / ",
". + ~ ! { { ! ( _ ( ! : < [ ^ / ",
". . ; ~ ! { { } | } : 1 : ! ~ + ",
". . . ; ~ ! [ 2 3 4 1 : ! ~ ; . ",
". . . . ; 5 6 7 8 9 : ! ~ ; . . ",
". . . . 0 a b c d e ! ~ ; . . 0 ",
". $ f $ g # h c i j 5 ; . $ / k ",
"; l m n o p b c c q a 0 ; - = r ",
"s t u v w x y i i j 5 _ ( ! z A ",
"B C D E F 3 G H I 2 J K J ) L M ",
"N O P Q R S T U V W X Y Z `  ...",
"+.C @.#.$.%.&.*.=.-.;.>.;.,.- ; ",
"'.).s !.= ~.{.]._ ^./.(./.^.; . ",
"# @ $ $ @ # @ $ . $ @ # @ $ . . "};
