/* XPM */
static const char * palette_xpm[] = {
"16 16 11 1",
" 	c None",
".	c #000000",
"+	c #FFFF00",
"@	c #808080",
"#	c #FF00FF",
"$	c #0000FF",
"%	c #00FFFF",
"&	c #00FF00",
"*	c #800080",
"=	c #FF0000",
"-	c #FFFFFF",
"                ",
" .............  ",
" .+++.@@@.###.  ",
" .+++.@@@.###.  ",
" .+++.@@@.###.  ",
" .............  ",
" .$$$.%%%.&&&.  ",
" .$$$.%%%.&&&.  ",
" .$$$.%%%.&&&.  ",
" .............  ",
" .***.===.---.  ",
" .***.===.---.  ",
" .***.===.---.  ",
" .............  ",
"                ",
"                "};
