/* XPM */
static const char * previewDisabled_xpm[] = {
"16 16 6 1",
" 	c None",
".	c #9D9D9D",
"+	c #E9E9E9",
"@	c #E0E0E0",
"#	c #C3C3C3",
"$	c #9DE9E9",
".........       ",
".+++++++..      ",
".+++++++.@.     ",
".+++++++....    ",
".++++++++++.    ",
".+++++++....    ",
".++++++.#@@#.   ",
".+++++.#$$@##.  ",
".+++++.@$@@# .  ",
".+++++.@@@@# .  ",
".+++++.#@@$##.  ",
".++++++.#@@#.#  ",
".+++++++....#.. ",
".++++++++++. ...",
"............  ..",
"                "};
