/* XPM */
static char * radiustoolDisabled_xpm[] = {
"16 16 3 1",
" 	c None",
".	c #9D9D9D",
"+	c #E9E99D",
"                ",
"      .....     ",
"     .+++++.    ",
" .........++.   ",
" .+++++++.+++.  ",
" .+++++++.+++.  ",
" .+++++++...++. ",
" .........++... ",
"  .++++.+++++.. ",
"   .++.+++++++. ",
"   .++.+++++++. ",
"    .+.+++++++. ",
"     .+.+++++.  ",
"      ...+++..  ",
"         ...    ",
"                "};
