/* XPM */
static const char * raytrace_xpm[] = {
"16 16 5 1",
" 	c None",
".	c #000000",
"+	c #FFFF00",
"@	c #808000",
"#	c #FFFFFF",
"                ",
"     ......     ",
"    .++++++.    ",
"   .+++++++@.   ",
"  .++##+++++@.  ",
" .+++##+++++@@. ",
" .++++++++++@@. ",
" .++++++++++@@. ",
" .+++++++++@@+. ",
" .++++++++@@@+. ",
"  .+++++@@@@+.  ",
"   .@@@@@@++.@@ ",
"   @.++++++.@@@@",
"  @@@......@@@@@",
"   @@@@@@@@@@@@@",
"                "};
