/* XPM */
static const char * rcpk_xpm[] = {
"16 16 5 1",
" 	c None",
".	c #000000",
"+	c #FFFF00",
"@	c #FFFFFF",
"#	c #808000",
"                ",
"     ......     ",
"    .++++++.    ",
"   .++++++++.   ",
"  .++@@++++++.  ",
" .+++@@+++++++. ",
" .++++++++++++. ",
" .++++++++++++. ",
" .++++++++++++. ",
" .+++++++++++#. ",
"  .++++++++##.  ",
"   .+++++##..   ",
"    .####...    ",
"     ......     ",
"                ",
"                "};
