/* XPM */
static const char * residuePartial_xpm[] = {
"16 16 72 1",
" 	c None",
".	c #FFFFFF",
"+	c #FCFCFC",
"@	c #FEFEFE",
"#	c #FCFCF8",
"$	c #FDFDFD",
"%	c #F7F7E8",
"&	c #F6F6C5",
"*	c #F7F7A3",
"=	c #FAFAFA",
"-	c #FEFEFF",
";	c #F3F3E0",
">	c #EFEF8E",
",	c #FFFF40",
"'	c #FFFF0D",
")	c #F6F6F6",
"!	c #F7F7F7",
"~	c #FAFAF5",
"{	c #E9E9A2",
"]	c #FCFC28",
"^	c #FFFF00",
"/	c #FFFF25",
"(	c #F9F9F9",
"_	c #EEEEEE",
":	c #F3F3E3",
"<	c #E4E46B",
"[	c #FFFF01",
"}	c #FFFF1C",
"|	c #F8F8F8",
"1	c #E9E9E9",
"2	c #ECECEC",
"3	c #E6E6CD",
"4	c #D6D642",
"5	c #F5F500",
"6	c #F3F3F3",
"7	c #E7E7E7",
"8	c #E5E5E5",
"9	c #E0E0C8",
"0	c #C1C139",
"a	c #DCDC00",
"b	c #EDED00",
"c	c #F3F300",
"d	c #F5F5F5",
"e	c #E1E1E1",
"f	c #E4E4E4",
"g	c #E8E8D9",
"h	c #B9B95C",
"i	c #BFBF00",
"j	c #CECE00",
"k	c #D3D300",
"l	c #F1F1F1",
"m	c #EDEDED",
"n	c #D9D9D9",
"o	c #F6F6F2",
"p	c #CDCDA4",
"q	c #AEAE34",
"r	c #AEAE00",
"s	c #E8E8E8",
"t	c #E2E2E2",
"u	c #DBDBDB",
"v	c #F0F0E7",
"w	c #C6C69E",
"x	c #A1A14B",
"y	c #8F8F14",
"z	c #DFDFDF",
"A	c #DEDEDE",
"B	c #F4F4F4",
"C	c #F3F3EE",
"D	c #D9D9CC",
"E	c #C5C5B1",
"F	c #EFEFEF",
"G	c #FBFBFB",
".+@@@@@@@@@@@@@@",
".@.@...........@",
".@....@#$$.....@",
".@..@%&*+==$...@",
".@.-;>,'..)!$..@",
"...~{]^/..(_)@.@",
"...:<^[}..|12+.@",
"...345^^.+678=.@",
"..@90abc=d_ef=.@",
".@@ghijklm8n1+.@",
".@.opqrrstued@.@",
".@..vwxyzAfB@..@",
".@...CDEF6(@..@@",
".@....@G$@.....@",
".+@@@@@@@@@@@@@@",
"................"};
