/* XPM */
static const char * residuePartialSelected_xpm[] = {
"16 16 93 2",
"  	c None",
". 	c #FFFFFF",
"+ 	c #FCFCFC",
"@ 	c #FEFEFE",
"# 	c #F8F8FC",
"$ 	c #FCFCFD",
"% 	c #FDFDFD",
"& 	c #FFFFFE",
"* 	c #E8E8F7",
"= 	c #C5C5F6",
"- 	c #A3A3F7",
"; 	c #E5E5FC",
"> 	c #EAEAFA",
", 	c #F5F5FA",
"' 	c #E0E0F3",
") 	c #8E8EEF",
"! 	c #4040FF",
"~ 	c #0D0DFF",
"{ 	c #C5C5FF",
"] 	c #C8C8FF",
"^ 	c #DADAF6",
"/ 	c #F1F1F7",
"( 	c #A2A2E9",
"_ 	c #2828FC",
": 	c #0000FF",
"< 	c #2625FF",
"[ 	c #CFCFFF",
"} 	c #CACAFF",
"| 	c #BFBFF9",
"1 	c #D9D9EE",
"2 	c #F3F3F6",
"3 	c #E3E3F3",
"4 	c #6B6BE4",
"5 	c #0101FF",
"6 	c #1C1CFF",
"7 	c #CBCBFF",
"8 	c #C7C7FF",
"9 	c #BFBFF8",
"0 	c #C1C1E9",
"a 	c #E6E6EC",
"b 	c #CDCDE6",
"c 	c #4242D6",
"d 	c #0000F5",
"e 	c #C2C2FF",
"f 	c #BFBFFC",
"g 	c #BFBFF3",
"h 	c #BFBFE7",
"i 	c #DDDDE5",
"j 	c #FAFAFA",
"k 	c #C8C8E0",
"l 	c #3939C1",
"m 	c #0000DC",
"n 	c #0000ED",
"o 	c #0000F3",
"p 	c #BFBFFA",
"q 	c #BFBFF5",
"r 	c #BFBFEE",
"s 	c #BFBFE1",
"t 	c #DFDFE4",
"u 	c #D9D9E8",
"v 	c #5C5CB9",
"w 	c #0000BF",
"x 	c #0000CE",
"y 	c #0000D3",
"z 	c #BFBFF1",
"A 	c #BFBFED",
"B 	c #BFBFE5",
"C 	c #C5C5D9",
"D 	c #E8E8E9",
"E 	c #F2F2F6",
"F 	c #A4A4CD",
"G 	c #3434AE",
"H 	c #0000AE",
"I 	c #BFBFE8",
"J 	c #BFBFE2",
"K 	c #BFBFDB",
"L 	c #DDDDE1",
"M 	c #F5F5F5",
"N 	c #E7E7F0",
"O 	c #9E9EC6",
"P 	c #4B4BA1",
"Q 	c #14148F",
"R 	c #C3C3DF",
"S 	c #CFCFDE",
"T 	c #E0E0E4",
"U 	c #F4F4F4",
"V 	c #EEEEF3",
"W 	c #CCCCD9",
"X 	c #B1B1C5",
"Y 	c #EBEBEF",
"Z 	c #F1F1F3",
"` 	c #F8F8F9",
" .	c #FBFBFB",
". + @ @ @ @ @ @ @ @ @ @ @ @ @ @ ",
". @ . @ . . . . . . . . . . . @ ",
". @ . . . . @ # $ % & . . . . @ ",
". @ . . @ * = - ; > , % . . . @ ",
". @ . & ' ) ! ~ { ] ^ / % . . @ ",
". @ . , ( _ : < [ } | 1 2 @ . @ ",
". @ . 3 4 : 5 6 7 8 9 0 a + . @ ",
". @ . b c d : : e f g h i j . @ ",
". @ @ k l m n o p q r s t j . @ ",
". @ @ u v w x y z A B C D + . @ ",
". @ . E F G H H I J K L M @ . @ ",
". @ . . N O P Q R S T U @ . . @ ",
". @ . . . V W X Y Z ` @ . . @ @ ",
". @ . . . . @  .% @ . . . . . @ ",
". . . . . . @ @ @ @ @ @ @ @ @ @ ",
". . . . . . . . . . . . . . . . "};
