/* XPM */
static const char * roty90Disabled_xpm[] = {
"16 16 3 1",
" 	c None",
".	c #9D9D9D",
"+	c #9D9DC3",
"     .          ",
"     .          ",
"  .  .  ...     ",
" .   .  ..      ",
".    .  ...     ",
".    .  . .     ",
" .   .    .     ",
"  ........      ",
"     .  ++   ++ ",
"  +  . +  + +  +",
"  +  . +  + +  +",
"+++++  +  + +  +",
"  +     +++ +  +",
"  +    +  + +  +",
"        ++  +++ ",
"                "};
