/* XPM */
static const char * save_xpm[] = {
"16 16 5 1",
" 	c None",
".	c #000000",
"+	c #808000",
"@	c #E0E0E0",
"#	c #808080",
"                ",
" .............. ",
" .+.@@@@@@@@.@. ",
" .+.@@@@@@@@... ",
" .+.@@@@@@@@.+. ",
" .+.@@@@@@@@.+. ",
" .+.@@@@@@@@.+. ",
" .+.@@@@@@@@.+. ",
" .++........#+. ",
" .++++++++++++. ",
" .++.........+. ",
" .++......@@.+. ",
" .++......@@.+. ",
" .++......@@.+. ",
"  ............. ",
"                "};
