/* XPM */
static const char * showtool_xpm[] = {
"16 16 6 1",
" 	c None",
".	c #000000",
"+	c #FFFF00",
"@	c #FFFFFF",
"#	c #FF0000",
"$	c #0000FF",
"       ..   .   ",
"      .+.. .+.  ",
"   ..  .++.++.  ",
"   ++.  .+++.   ",
"   .++. .++.  @ ",
"  @ .++.++.   @ ",
"  @  .+++.    @ ",
"@@@@@.++.   @@@@",
"  @  .++.     @ ",
"  @  .++. .#  @ ",
"   ..+++. .#    ",
"   $$...++.+.+  ",
"   ..   ..+++.  ",
"          ...   ",
"                ",
"                "};
