/* XPM */
static char * slabinDisabled_xpm[] = {
"16 16 2 1",
" 	c None",
".	c #9D9D9D",
"     .          ",
"     .          ",
"   .....        ",
"    ...         ",
"     .          ",
" .........      ",
"                ",
"                ",
"                ",
"     .......... ",
"          .     ",
"         ...    ",
"        .....   ",
"          .     ",
"          .     ",
"                "};
