/* XPM */
static const char * surfacetool_xpm[] = {
"16 16 3 1",
" 	c None",
".	c #FFFF00",
"+	c #0000FF",
"                ",
"     .  .       ",
"   .       .    ",
"    . .  .      ",
"  .          .  ",
"    .  ..  .    ",
"  .   ....   .  ",
"    . .... .    ",
"      ...       ",
"  + . .. . . .  ",
" +   ..         ",
"   + ++     +   ",
"+   +++ + +     ",
"   ++++     +   ",
" + ++++  +      ",
"                "};
