/* XPM */
static const char * surf_xpm[] = {
"16 16 4 1",
" 	c None",
".	c #000000",
"+	c #FFFF00",
"@	c #FF0000",
"................",
"....+.+.+.......",
"...+..+..++.....",
"..+.+...+.+.....",
".........+.+....",
".+.+.+.+........",
"...........++...",
"@....+..+...+...",
"...@.......++...",
"@....@....+.....",
"..@....@...+....",
".@..@....@.@....",
".@.@..@....@....",
"@....@.@.@......",
"..@.@.....@.....",
"                "};
