/* XPM */
static const char * synced_xpm[] = {
"16 16 16 1",
" 	c None",
".	c #BD8416",
"+	c #FEFDEF",
"@	c #FEF8DD",
"#	c #FDF8DD",
"$	c #FEF8DE",
"%	c #FCF1C3",
"&	c #FDF1C3",
"*	c #AA6F10",
"=	c #FCEAA9",
"-	c #FBE597",
";	c #BA9726",
">	c #FDF6D5",
",	c #FCECB1",
"'	c #FBECB1",
")	c #A66B10",
"    ..          ",
"   .+.          ",
"  .++.          ",
" .@#$.......    ",
".%&&%&%%&%%%*   ",
" *===*******    ",
"  *--*    .;    ",
"   *-*    ..;   ",
"    **    .+..  ",
"    .......>>>. ",
"   .,',,,,,,,,,.",
"    )))))))---) ",
"          )--)  ",
"          )-)   ",
"          ))    ",
"                "};
