/* XPM */
static const char * topviewDisabled_xpm[] = {
"16 16 4 1",
" 	c None",
".	c #9D9D9D",
"+	c #E9E9E9",
"@	c #9D9DE9",
"         .  .   ",
" .   .   .  .   ",
" .    .  .  .   ",
" .     ........ ",
" .     .++++++. ",
" .     @@+++++. ",
" .     @.@+++.  ",
" . ...  ..@+.   ",
" . ..    @@.    ",
" . . . .        ",
" .    ..        ",
" .   ...        ",
" .              ",
" ............   ",
"                ",
"                "};
