/* XPM */
static const char * vuSelected_xpm[] = {
"16 16 9 1",
" 	c None",
".	c #0000FF",
"+	c #FF0000",
"@	c #FFFFFF",
"#	c #00FF00",
"$	c #FFFF00",
"%	c #000080",
"&	c #008000",
"*	c #00FFFF",
"................",
".+.....@........",
".+.....@........",
"..+...@.#....$..",
"..+...@.#....$..",
"..+...@.#....$..",
"...+.@..#....$..",
"...+.@..#....$..",
"...+.@..#....$..",
"....@...#....$..",
"....@....%%%%...",
".&&&&&&&&&&&&&&.",
".**************.",
"................",
"................",
"................"};
