/* XPM */
static char * zoomoutDisabled_xpm[] = {
"16 16 3 1",
" 	c None",
".	c #9D9D9D",
"+	c #E99D9D",
"....        ....",
"..            ..",
". .          . .",
".  .        .  .",
"    . +++  .    ",
"     +++++      ",
"    +++++++     ",
"    +++++++     ",
"    +++++++     ",
"     +++++      ",
"    . +++  .    ",
".  .        .  .",
". .          . .",
"..            ..",
"....        ....",
"                "};
