/* XPM */
static const char * zoominDisabled_xpm[] = {
"16 16 3 1",
" 	c None",
".	c #9D9D9D",
"+	c #C39D9D",
".              .",
" .  .      .  . ",
"  . .      . .  ",
"   ..      ..   ",
" ....      .... ",
"       ++       ",
"      ++++      ",
"      ++++      ",
"      ++++      ",
"       ++       ",
" ....      .... ",
"   ..      ..   ",
"  . .      . .  ",
" .  .      .  . ",
".              .",
"                "};
