/* XPM */
static const char *bullseye[] = {
/* columns rows colors chars-per-pixel */
"32 32 3 1",
"  c black",
". c gray100",
"X c None",
/* pixels */
"XXXXXXXXXXXXXXXXXXXXXXXXXXXXXXXX",
"XXXXXXXXXXXXXXXXXXXXXXXXXXXXXXXX",
"XXXXXXXXXXXXXXXXXXXXXXXXXXXXXXXX",
"XXXXXXXXXXXXXXXXXXXXXXXXXXXXXXXX",
"XXXXXXXXXXXX       XXXXXXXXXXXXX",
"XXXXXXXXXX           XXXXXXXXXXX",
"XXXXXXXXX   XXXXXXX   XXXXXXXXXX",
"XXXXXXXX  XXXXXXXXXXX  XXXXXXXXX",
"XXXXXXX  XXXXXXXXXXXXX  XXXXXXXX",
"XXXXXX  XXXXX.....XXXXX  XXXXXXX",
"XXXXX  XXXXX..XXX..XXXXX  XXXXXX",
"XXXXX  XXXX.XXXXXXX.XXXX  XXXXXX",
"XXXX  XXXX.XXXXXXXXX.XXXX  XXXXX",
"XXXX  XXX..XXXXXXXXX..XXX  XXXXX",
"XXXX  XXX.XXXXXXXXXXX.XXX  XXXXX",
"XXXX  XXX.XXXXXXXXXXX.XXX  XXXXX",
"XXXX  XXX.XXXXXXXXXXX.XXX  XXXXX",
"XXXX  XXX..XXXXXXXXX..XXX  XXXXX",
"XXXX  XXXX.XXXXXXXXX.XXXX  XXXXX",
"XXXXX  XXXX.XXXXXXX.XXXX  XXXXXX",
"XXXXX  XXXXX..XXX..XXXXX  XXXXXX",
"XXXXXX  XXXXX.....XXXXX  XXXXXXX",
"XXXXXXX  XXXXXXXXXXXXX  XXXXXXXX",
"XXXXXXXX  XXXXXXXXXXX  XXXXXXXXX",
"XXXXXXXXX   XXXXXXX   XXXXXXXXXX",
"XXXXXXXXXX           XXXXXXXXXXX",
"XXXXXXXXXXXX       XXXXXXXXXXXXX",
"XXXXXXXXXXXXXXXXXXXXXXXXXXXXXXXX",
"XXXXXXXXXXXXXXXXXXXXXXXXXXXXXXXX",
"XXXXXXXXXXXXXXXXXXXXXXXXXXXXXXXX",
"XXXXXXXXXXXXXXXXXXXXXXXXXXXXXXXX",
"XXXXXXXXXXXXXXXXXXXXXXXXXXXXXXXX"
};
