/* XPM */
static const char *hand[] = {
/* columns rows colors chars-per-pixel */
"32 32 3 1",
"  c black",
". c gray100",
"X c None",
/* pixels */
"XXXXXXXXXXXXXXXXXXXXXXXXXXXXXXXX",
"XXXXXXXXXXXXXXXXXXXXXXXXXXXXXXXX",
"XXXXXXXXXXXXXXXXXXXXXXXXXXXXXXXX",
"XXXXXXXXXXXXXXXXXXXXXXXXXXXXXXXX",
"XXXXXXXXXXXXXXXXXXXXXXXXXXXXXXXX",
"XXXXXXXXXXX  XXXXXXXXXXXXXXXXXXX",
"XXXXXXXXXX .. XXXXXXXXXXXXXXXXXX",
"XXXXXXXXXX .. XXXXXXXXXXXXXXXXXX",
"XXXXXXXXXX .. XXXXXXXXXXXXXXXXXX",
"XXXXXXXXXX .. XXXXXXXXXXXXXXXXXX",
"XXXXXXXXXX ..   X  XXXXXXXXXXXXX",
"XXXXXXXXXX .. .. ..   XXXXXXXXXX",
"XXXXXXXXXX .. .. .. .. XXXXXXXXX",
"XXXXXXX  X .. .. .. .. XXXXXXXXX",
"XXXXXX ..  ........... XXXXXXXXX",
"XXXXXX ... ........... XXXXXXXXX",
"XXXXXXX .............. XXXXXXXXX",
"XXXXXXXX ............. XXXXXXXXX",
"XXXXXXXXX ............ XXXXXXXXX",
"XXXXXXXXX ........... XXXXXXXXXX",
"XXXXXXXXXX .......... XXXXXXXXXX",
"XXXXXXXXXXX ........ XXXXXXXXXXX",
"XXXXXXXXXXXX ...... XXXXXXXXXXXX",
"XXXXXXXXXXXX ...... XXXXXXXXXXXX",
"XXXXXXXXXXXXXXXXXXXXXXXXXXXXXXXX",
"XXXXXXXXXXXXXXXXXXXXXXXXXXXXXXXX",
"XXXXXXXXXXXXXXXXXXXXXXXXXXXXXXXX",
"XXXXXXXXXXXXXXXXXXXXXXXXXXXXXXXX",
"XXXXXXXXXXXXXXXXXXXXXXXXXXXXXXXX",
"XXXXXXXXXXXXXXXXXXXXXXXXXXXXXXXX",
"XXXXXXXXXXXXXXXXXXXXXXXXXXXXXXXX",
"XXXXXXXXXXXXXXXXXXXXXXXXXXXXXXXX"
};
