/* XPM */
static char *MW_CENTE[] = {
/* columns rows colors chars-per-pixel */
"32 32 3 1",
"  c black",
". c gray100",
"X c None",
/* pixels */
"XXXXXXXXXXXXX  .  XXXXXXXXXXXXXX",
"XXXXXXXXXXXX  ... XXXXXXXXXXXXXX",
"XXXXXXXXXXX  ..... XXXXXXXXXXXXX",
"XXXXXXXXXXX ....... XXXXXXXXXXXX",
"XXXXXXXXXXX   ...   XXXXXXXXXXXX",
"XXXXXXXXXXXXX ... XXXXXXXXXXXXXX",
"XXXXXXXXXXXXX ... XXXXXXXXXXXXXX",
"XXXXXXXXXXXXX ... XXXXXXXXXXXXXX",
"XXXXXXXX      ...      XXXXXXXXX",
"XXXXXXXX ............. XXXXXXXXX",
"XXXXXXXX .XXXXXXXXXXX. XXXXXXXXX",
"XX   XXX .XXXXXXXXXXX. XXXX   XX",
"X  . XXX .XXXXXXXXXXX. XXXX .  X",
"  ..     .XXXXXXXXXXX.      ..  ",
" .........XXXXXXXXXXX.......... ",
"..........XXXXXXXXXXX...........",
" .........XXXXXXXXXXX.......... ",
"  ..     .XXXXXXXXXXX.      ..  ",
"X  . XXX .XXXXXXXXXXX. XXXX .  X",
"XX   XXX .XXXXXXXXXXX. XXXX   XX",
"XXXXXXXX .XXXXXXXXXXX. XXXXXXXXX",
"XXXXXXXX ............. XXXXXXXXX",
"XXXXXXXX      ...      XXXXXXXXX",
"XXXXXXXXXXXXX ... XXXXXXXXXXXXXX",
"XXXXXXXXXXXXX ... XXXXXXXXXXXXXX",
"XXXXXXXXXXXXX ... XXXXXXXXXXXXXX",
"XXXXXXXXXXXXX ... XXXXXXXXXXXXXX",
"XXXXXXXXXXX   ...   XXXXXXXXXXXX",
"XXXXXXXXXXX ....... XXXXXXXXXXXX",
"XXXXXXXXXXX  .....  XXXXXXXXXXXX",
"XXXXXXXXXXXX  ...  XXXXXXXXXXXXX",
"XXXXXXXXXXXXX  .  XXXXXXXXXXXXXX"
};
