/* XPM */
static const char *MW_ROTAT[] = {
/* columns rows colors chars-per-pixel */
"32 32 3 1",
"  c black",
". c gray100",
"X c None",
/* pixels */
"XXXXXX .   ...   XXXXXXXXXXXXXXX",
"XXXXXX . ....... XXXXXXXXXXXXXXX",
"XXXXXX ....  .... XXXXXXXXXXXXXX",
"XXXXXX ...     ..  XXXXXXXXXXXXX",
"XXXXXX ..... X  .. XXXXXXXXXXXXX",
"XXXXXX       XX ... XXXXXXXXXXXX",
"XXXXXXXXXXXXXXX  .. XXXXX       ",
"       XXXXXXXXX .. XXXXX ......",
"...... XXXXXXXXX  .. XXXX ..... ",
" ..... XXXXXXXXXX .. XXXX ....  ",
"  .... XXXXXXXXXX .. XXXX ..... ",
" ..... XXXXXXXXXX .. XXXX .. ...",
"... .. XXXXXXXXXX .. XXXX ..  ..",
"..   . XXXXXXXXXX .. XXXX .   ..",
"..     XXXXXXXXXX .. XXXX    ...",
"....   XXXXXXXXXX .. XXXX   ... ",
" .....    XXXXXXX .. X    ....  ",
"   ......         ..   .....   X",
"XX    ....................   XXX",
"XXXXX    ..............    XXXXX",
"XXXXXXXX          ..    XXXXXXXX",
"XXXXXXXXXXXXXXXX  .. XXXXXXXXXXX",
"XXXXXXXXXXXXXXXX ..  XXXXXXXXXXX",
"XXXXXXXXXXXXXXXX .. XXXXXXXXXXXX",
"XXXX        XXXX .. XXXXXXXXXXXX",
"XXXX ...... XXX  .. XXXXXXXXXXXX",
"XXXX .....  XXX ..  XXXXXXXXXXXX",
"XXXX ...   XXX  .. XXXXXXXXXXXXX",
"XXXX .... XXX  ..  XXXXXXXXXXXXX",
"XXXX .. ..    ... XXXXXXXXXXXXXX",
"XXXX .   .......  XXXXXXXXXXXXXX",
"XXXX   X  ....   XXXXXXXXXXXXXXX"
};
