/* XPM */
static char *MW_SLAB[] = {
/* columns rows colors chars-per-pixel */
"32 32 3 1",
"  c black",
". c gray100",
"X c None",
/* pixels */
"XXXXXXXXXXXXXXXXXXXXXXXXXXXXXXXX",
"XXXXXXXXXXXXXXXXXXXXXXXXXXXXXXXX",
"XXXXXXXXXXXXXXXXXXXXXXXXXXXXXXXX",
"XXXXXXXXXXXXXX   XXXXXXXXXXXXXXX",
"XXXXXXXXXXXXX  .  XXXXXXXXXXXXXX",
"XXXXXXXXXXXX  ...  XXXXXXXXXXXXX",
"XXXXXXXXXXX  .....  XXXXXXXXXXXX",
"XXXXXXXXXXX ....... XXXXXXXXXXXX",
"XXXXXXXXXXX   ...   XXXXXXXXXXXX",
"XXXXXXXXXXXXX ... XXXXXXXXXXXXXX",
"XXXXXXXXXXXXX ... XXXXXXXXXXXXXX",
"XXXXXXXXXXXXX ... XXXXXXXXXXXXXX",
"XXXXXXXXXXXXX ... XXXXXXXXXXXXXX",
"XXXXXXXXXXXXX ... XXXXXXXXXXXXXX",
"              ...               ",
"................................",
"................................",
"              ...               ",
"XXXXXXXXXXXXX ... XXXXXXXXXXXXXX",
"XXXXXXXXXXXXX ... XXXXXXXXXXXXXX",
"XXXXXXXXXXXXX ... XXXXXXXXXXXXXX",
"XXXXXXXXXXXXX ... XXXXXXXXXXXXXX",
"XXXXXXXXXXXXX ... XXXXXXXXXXXXXX",
"XXXXXXXXXXX   ...   XXXXXXXXXXXX",
"XXXXXXXXXXX ....... XXXXXXXXXXXX",
"XXXXXXXXXXX  .....  XXXXXXXXXXXX",
"XXXXXXXXXXXX  ...  XXXXXXXXXXXXX",
"XXXXXXXXXXXXX  .  XXXXXXXXXXXXXX",
"XXXXXXXXXXXXXX   XXXXXXXXXXXXXXX",
"XXXXXXXXXXXXXXXXXXXXXXXXXXXXXXXX",
"XXXXXXXXXXXXXXXXXXXXXXXXXXXXXXXX",
"XXXXXXXXXXXXXXXXXXXXXXXXXXXXXXXX"
};
