/* XPM */
static char *MW_SCALE[] = {
/* columns rows colors chars-per-pixel */
"32 32 3 1",
"  c black",
". c gray100",
"X c None",
/* pixels */
"XXXXXXXXXXXXX  .  XXXXXXXXXXXXXX",
"XXXXXXXXXXXX  ...  XXXXXXXXXXXXX",
"XXXXXXXXXXX  .....  XXXXXXXXXXXX",
"XXXXXXXXXX  .......  XXXXXXXXXXX",
"XXXXXXXXX  .........  XXXXXXXXXX",
"XXXXXXXX  ...........  XXXXXXXXX",
"XXXXXXX  .............  XXXXXXXX",
"XXXXXX  ...............  XXXXXXX",
"XXXXX  .. ........... ..  XXXXXX",
"XXXXX .    .........    . XXXXXX",
"XXXXX   XX ......... XX   XXXXXX",
"XXXXXXXXXX ......... XXXXXXXXXXX",
"XXXXXXXXXX ......... XXXXXXXXXXX",
"XXXXXXXXXX  .......  XXXXXXXXXXX",
"XXXXXXXXXXX ....... XXXXXXXXXXXX",
"XXXXXXXXXXX ....... XXXXXXXXXXXX",
"XXXXXXXXXXX ....... XXXXXXXXXXXX",
"XXXXXXXXXXX  .....  XXXXXXXXXXXX",
"XXXXXXXXXXXX ..... XXXXXXXXXXXXX",
"XXXXXXXXXXXX ..... XXXXXXXXXXXXX",
"XXXXXXXXXXXX ..... XXXXXXXXXXXXX",
"XXXXXXXXXXXX  ...  XXXXXXXXXXXXX",
"XXXXXXXXXXXXX ... XXXXXXXXXXXXXX",
"XXXXXXXXXXXXX ... XXXXXXXXXXXXXX",
"XXXXXXXXXXXXX ... XXXXXXXXXXXXXX",
"XXXXXXXXXXXXX  .  XXXXXXXXXXXXXX",
"XXXXXXXXXXXXXX . XXXXXXXXXXXXXXX",
"XXXXXXXXXXX    .    XXXXXXXXXXXX",
"XXXXXXXXXXX .  .  . XXXXXXXXXXXX",
"XXXXXXXXXXX  .....  XXXXXXXXXXXX",
"XXXXXXXXXXXX  ...  XXXXXXXXXXXXX",
"XXXXXXXXXXXXX  .  XXXXXXXXXXXXXX"
};
