/* XPM */
static const char *MW_TRANS[] = {
/* columns rows colors chars-per-pixel */
"32 32 3 1",
"  c black",
". c gray100",
"X c None",
/* pixels */
"XXXXXXXXXXXXX  .  XXXXXXXXXXXXXX",
"XXXXXXXXXXXX  ...  XXXXXXXXXXXXX",
"XXXXXXXXXXX  .....  XXXXXXXXXXXX",
"XXXXXXXXXX  .......  XXXXXXXXXXX",
"XXXXXXXXXX ......... XXXXXXXXXXX",
"XXXXXXXXXX    ...    XXXXXXXXXXX",
"XXXXXXXXXXXXX ... XXXXXXXXXXXXXX",
"XXXXXXXXXXXXX ... XXXXXXXXXXXXXX",
"XXXXXXXXXXXXX ... XXXXXXXXXXXXXX",
"XXXXXXXXXXXXX ... XXXXXXXXXXXXXX",
"XXX   XXXXXXX ... XXXXXXXX   XXX",
"XX  . XXXXXXX ... XXXXXXXX .  XX",
"X  .. XXXXXXX ... XXXXXXXX ..  X",
"  ...         ...          ...  ",
" .............................. ",
"................................",
" .............................. ",
"  ...         ...          ...  ",
"   .. XXXXXXX ... XXXXXXXX ..  X",
"XX  . XXXXXXX ... XXXXXXXX .  XX",
"XXX   XXXXXXX ... XXXXXXXX   XXX",
"XXXXXXXXXXXXX ... XXXXXXXXXXXXXX",
"XXXXXXXXXXXXX ... XXXXXXXXXXXXXX",
"XXXXXXXXXXXXX ... XXXXXXXXXXXXXX",
"XXXXXXXXXXXXX ... XXXXXXXXXXXXXX",
"XXXXXXXXXXXXX ... XXXXXXXXXXXXXX",
"XXXXXXXXXX    ...    XXXXXXXXXXX",
"XXXXXXXXXX ......... XXXXXXXXXXX",
"XXXXXXXXXX  .......  XXXXXXXXXXX",
"XXXXXXXXXXX  .....  XXXXXXXXXXXX",
"XXXXXXXXXXXX  ...  XXXXXXXXXXXXX",
"XXXXXXXXXXXX   .  XXXXXXXXXXXXXX"
};
