/* XPM */
static const char *MW_TORSI[] = {
/* columns rows colors chars-per-pixel */
"32 32 3 1",
"  c black",
". c gray100",
"X c None",
/* pixels */
"XXXXXXXXXXXXX  ..  XXXXXXXXXXXXX",
"XXXXXXXXXXXXX .... XXXXXXXXXXXXX",
"XXXXXXXXXXXXX .... XXXXXXXXXXXXX",
"XXXXXXXXXXXXX  ..  XXXXXXXXXXXXX",
"XXXXXXXXXXXXXX .. XXXXXXXXXXXXXX",
"XX        XXXX .. XXXX        XX",
"XX ...... XXXX .. XXXX ...... XX",
"XX   .... XXXX .. XXXX ....   XX",
"XXX  .... XXXX .. XXXX ....  XXX",
"XX  ..... XXXX .. XXXX .....  XX",
"X  ..   . XXXX .. XXXX .   ..  X",
"X ..  X . XXXX .. XXXX . X  .. X",
"X .. XX   XXXX .. XXXX   XX .. X",
"X .. XXXXXXXXX .. XXXXXXXXX .. X",
"X .. XXXXXXXXX .. XXXXXXXXX .. X",
"X ..  XXXXXXXX .. XXXXXXXX  .. X",
"X  ..  XXXXXXX .. XXXXXXX  ..  X",
"XX  ..   XXXXX .. XXXXX   ..  XX",
"XXX  ...    XX .. XX    ...  XXX",
"XXXX  .....          .....  XXXX",
"XXXXX   ...............    XXXXX",
"XXXXXXX    ..........   XXXXXXXX",
"XXXXXXXXXX            XXXXXXXXXX",
"XXXXXXXXXXXXXX .. XXXXXXXXXXXXXX",
"XXXXXXXXXXXXXX .. XXXXXXXXXXXXXX",
"XXXXXXXXXXXXXX .. XXXXXXXXXXXXXX",
"XXXXXXXXXXXXXX .. XXXXXXXXXXXXXX",
"XXXXXXXXXXXXXX .. XXXXXXXXXXXXXX",
"XXXXXXXXXXXXX  ..  XXXXXXXXXXXXX",
"XXXXXXXXXXXXX .... XXXXXXXXXXXXX",
"XXXXXXXXXXXXX .... XXXXXXXXXXXXX",
"XXXXXXXXXXXXX  ..  XXXXXXXXXXXXX"
};
