/* XPM */
static const char *mw_wait5[] = {
/* columns rows colors chars-per-pixel */
"32 32 3 1",
"  c black",
". c gray100",
"X c None",
/* pixels */
"     XXXXXXXXXXXXXXXXXXXXXXXXXXX",
" ... XXXXXXXXXXXXXXXXXXXXXXXXXXX",
" .. XXXXXXXXXXXXXXXXXXXXXXXXXXXX",
" . . XXXXXXXXXXXXXXXXXXXXXXXXXXX",
"  X . XXXXXXXXXXXXXXXXXXXXXXXXXX",
"  XX  XXXXXXXXXXXXXXXXXXXXXXXXXX",
".. XXXXXXXXXXXXXXXXXXXXXXXXXXXXX",
"..  XXXXXXXXXXXXXXXXXXXXXXXXXXXX",
"... XXXXXXXXXXXXXXXXXXXXXXXXXXXX",
"... XXXXXXX  XXXXX XXXXXXXXXXXXX",
"...  XXXXXX  XXXXX  XXXXXXXXXXXX",
"...  XXXXXX  XXXXX  XXXXXXXXXXXX",
"  . XXXXXXX   XXX   XXXXXXXXXXXX",
" XXXXXXXXXX . XXX   XXXXXXXXXXXX",
"XXXXXXXXXXX . XX . XXXXXXXXXXXXX",
"XXXXXXXXXXX . XX . XXXXXXXXXXXXX",
"XXXXXXXXXXXX. XX . XXXXXXXXXXXXX",
"XXXXXXXXXXXX. XX . XXXXXXXX     ",
"XXXXXXXXXXXX . X    XXXXX  .....",
"XXXXXXXXXXX  . X  .. XXX  ......",
"XXXXXXXXXXX .. X  ...    .......",
"XXXXXXXXXXX ..    .... .........",
"XXXXXXXXXX  . X . ..............",
"XXXXXXXXXX .. X . ..............",
"XXXXXXXXXX .. X . ..............",
"XXXXXXXXXXX ..  ...... .........",
"XXXXXXXXXXX  . . ..      .......",
"XXXXXXXXXXXX  ..    XXXX        ",
"XXXXXXXXXXXXX  . XXXXXXXXXXXXXX ",
"XXXXXXXXXXXXXX . XXXXXXXXXXXXXX ",
"XXXXXXXXXXXXXX . XXXXXXXXXXXXXX ",
"XXXXXXXXXXXXXX . XXXXXXXXXXXXXXX"
};
