/* XPM */
static const char *mw_wait6[] = {
/* columns rows colors chars-per-pixel */
"32 32 3 1",
"  c black",
". c gray100",
"X c None",
/* pixels */
"     XXXXXXXXXXXXXXXXXXXXXXXXXXX",
" ... XXXXXXXXXXXXXXXXXXXXXXXXXXX",
" .. XXXXXXXXXXXXXXXXXXXXXXXXXXXX",
" . . XXXXXXXXXXXXXXXXXXXXXXXXXXX",
"            XXXXXXXXXXXXXXXXXXXX",
"  .........  XXXXXXXXXXXXXXXXXXX",
" ...........  XXXXXXXXXXXXXXXXXX",
".........  ... XXXXXXXXXXXXXXXXX",
"........    ..  XXXXXXXXXXXXXXXX",
"........    ... XXXXXXXXXXXXXXXX",
".........  .... XXXXXXXXXXXXXXXX",
"...............  XXXXXXXXXXXXXXX",
"...............  XX  XXXXXXXXXXX",
"............  . XX   XXXXXXXXXXX",
"       ..    XXXXX   XXXXXXXXXXX",
"XXXXXX .. XX  XXX   XXXXXXXXXXXX",
"XXXXXX . XXX   XX . XXXXXXXXXXXX",
"XXXXXX  XXXX . XX . XXXXXXXXXXXX",
"XXXXXXXXXXXX . XX . XXXXXXXXXXXX",
"XXXXXXXXXXXX  . X . XXXXXXXXX  X",
"XXXXXXXXXXXXX .  . XXXXXXXXXX . ",
"XXXXXXXXXXXXX .  . XXXXXXXXXX ..",
"XXXXXXXXXXXXX .  . XXXXXXXXXX ..",
"XXXXXXXXXXXXX . .. XXXXXXXXXX ..",
"XXXXXXXXXXXXX . .. XXXXXXXXXXX .",
"XXXXXXXXXXXXX . .. XXXXXXXXXXX .",
"XXXXXXXXXXXXX . . XXXXXXXXXXXX .",
"XXXXXXXXXXXXX  .. XXXXXXXXXXXX .",
"XXXXXXXXXXXXXX .  XXXXXXXXXXXX .",
"XXXXXXXXXXXXXX . XXXXXXXXXXXXX  ",
"XXXXXXXXXXXXXX . XXXXXXXXXXXXXXX",
"XXXXXXXXXXXXXX . XXXXXXXXXXXXXXX"
};
