/* XPM */
static const char *mw_wait1[] = {
/* columns rows colors chars-per-pixel */
"32 32 3 1",
"  c black",
". c gray100",
"X c None",
/* pixels */
"     XXXXXXXXXXXXXXXXXXXXXXXXXXX",
" ... XXXXXXXXXXXXXXXXXXXXXXXXXXX",
" .. XXXXXXXXXXXXXXXXXXXXXXXXXXXX",
" . . XXXXXX          XXXXXXXXXXX",
"    .XXXX  .........  XXXXXXXXXX",
" ... XXX  ...........  XXXXXXXXX",
" ....    .........  ... XXXXXXXX",
" ..... ..........    ..  XXXXXXX",
"X ...............    ... XXXXXXX",
"X ................  .... XXXXXXX",
"X ......................  XXXXXX",
"X .... .................  XXXXXX",
"X .      ............    XXXXXXX",
"X   XXXX        ..    XXXXXXXXXX",
"XXXXXXXXXXX  XX .. XXXXXXXXXXXXX",
"XXXXXXXXXXX  XX . . XXXXXXXXXXXX",
"XXXXXXXXXXXX  X   . XXXXXXXXXXXX",
"XXXXXXXXXXXX  XXX . XXXXXXXXXXXX",
"XXXXXXXXXXXX . XX . XXXXXXXXXXXX",
"XXXXXXXXXXXX . XX . XXXXXXXXXXXX",
"XXXXXXXXXXXX . XX . XXXXXXXXXXXX",
"XXXXXXXXXXXX .  X . XXXXXXXXXXXX",
"XXXXXXXXXXXXX .   . XXXXXXXXXXXX",
"XXXXXXXXXXXXX .. . XXXXXXXXXXXXX",
"XXXXXXXXXXXXX .. . XXXXXXXXXXXXX",
"XXXXXXXXXXXXX  . . XXXXXXXXXXXXX",
"XXXXXXXXXXXXXX ... XXXXXXXXXXXXX",
"XXXXXXXXXXXXXX .. XXXXXXXXXXXXXX",
"XXXXXXXXXXXXXX .  XXXXXXXXXXXXXX",
"XXXXXXXXXXXXXX . XXXXXXXXXXXXXXX",
"XXXXXXXXXXXXXX . XXXXXXXXXXXXXXX",
"XXXXXXXXXXXXXX . XXXXXXXXXXXXXXX"
};
