/* XPM */
static const char *mw_wait3[] = {
/* columns rows colors chars-per-pixel */
"32 32 3 1",
"  c black",
". c gray100",
"X c None",
/* pixels */
"     XXXXXXXXXXXXXXXXXXXXXXXXXXX",
" ... XXXXXXXXXXXXXXXXXXXXXXXXXXX",
" .. XXXXXXXXXXXXXXXXXXXXXXXXXXXX",
" . . XXXXXXXXXXXXXXXXXXX  XXXXXX",
"  X . XXXXXXXXXXXXXXXXXX .  XXXX",
"XXXX  XXXXXXXXXXXXXXXXXX ... XXX",
"XXXXXXXXXXXXXXXXXXXXXXXX ....   ",
"XXXXXXXXXXXXXXXXXXXXXXXX ..... .",
"XXXXXXXXXXXXXXXXX XXXXXXX ......",
"XXXXXXXXXXXX XXXX  XXXXXX ......",
"XXXXXXXXXXXX XXXX  XXXXXX ......",
"XXXXXXXXXXXX  XXX  XXXXXX .... .",
"XXXXXXXXXXX   XXX  XXXXXX .     ",
"XXXXXXXXXXX .  X . XXXXXX   XXXX",
"XXXXXXXXXXX .. X . XXXXXXXXXXXXX",
"XXXXXXXXXXX .. X . XXXXXXXXXXXXX",
"XXXXXXXXXXX .. X . XXXXXXXXXXXXX",
"     XXXXXX  .  .  XXXXXXXXXXXXX",
"....  XXXXXX .  . XXXXXXXXXXXXXX",
".....  XXXXX .  . XXXXXXXXXXXXXX",
"..  ... XXXX .  .  XXXXXXXXXXXXX",
".    ..  XXX .  .. XXXXXXXXXXXXX",
".    ... XXXX . .. XXXXXXXXXXXXX",
"..  .... XXXX .  . XXXXXXXXXXXXX",
"........  XXX .  . XXXXXXXXXXXXX",
"........  XXX . .  XXXXXXXXXXXXX",
".....  . XXXXX .. XXXXXXXXXXXXXX",
"..    XXXXXXXX .. XXXXXXXXXXXXXX",
".. XXXXXXXXXXX . XXXXXXXXXXXXXXX",
". XXXXXXXXXXXX . XXXXXXXXXXXXXXX",
" XXXXXXXXXXXXX . XXXXXXXXXXXXXXX",
"XXXXXXXXXXXXXX . XXXXXXXXXXXXXXX"
};
