/* XPM */
static char *mw_wait2[] = {
/* columns rows colors chars-per-pixel */
"32 32 3 1",
"  c black",
". c gray100",
"X c None",
/* pixels */
"     XXXXXXXXXXXXXXXXXXXXXXXXXXX",
" ... XXXXXXXXXXXXXXXXXXXXXXXXXXX",
" .. XXXXXXXXXXXXXXXXXXXXXXXXXXXX",
" . . XXXXXX XXXXXXXXX          X",
"  X . XXXXX   XXXXX  .........  ",
"XXXX  XXXXX .. XXX  ........... ",
"XXXXXXXXXXX ...    .........  ..",
"XXXXXXXXXXX .... ..........    .",
"XXXXXXXXXXX ...............    .",
"XXXXXXXXXXX ................  ..",
"XXXXXXXXXX  ....................",
"XXXXXXXXXX ..... ...............",
"XXXXXXXXXX ..      ............ ",
"XXXXXXXXXX    XXXX        ..    ",
"XXXXXXXXXXX  XXXXX  XXXXX .. XXX",
"XXXXXXXXXXX   XXX   XXXXX . XXXX",
"XXXXXXXXXXX . XXX . XXXXX  XXXXX",
"XXXXXXXXXXX .. XX . XXXXXXXXXXXX",
"XXXXXXXXXXX .. XX . XXXXXXXXXXXX",
"XXXXXXXXXXXX . XX . XXXXXXXXXXXX",
"XXXXXXXXXXXX . XX . XXXXXXXXXXXX",
"XXXXXXXXXXXX . X  . XXXXXXXXXXXX",
"XXXXXXXXXXXX .   .  XXXXXXXXXXXX",
"XXXXXXXXXXXX  . .. XXXXXXXXXXXXX",
"XXXXXXXXXXXXX . .  XXXXXXXXXXXXX",
"XXXXXXXXXXXXX  .. XXXXXXXXXXXXXX",
"XXXXXXXXXXXXXX .. XXXXXXXXXXXXXX",
"XXXXXXXXXXXXXX .. XXXXXXXXXXXXXX",
"XXXXXXXXXXXXXX .  XXXXXXXXXXXXXX",
"XXXXXXXXXXXXXX . XXXXXXXXXXXXXXX",
"XXXXXXXXXXXXXX . XXXXXXXXXXXXXXX",
"XXXXXXXXXXXXXX . XXXXXXXXXXXXXXX"
};
