/* XPM */
static const char *mw_wait4[] = {
/* columns rows colors chars-per-pixel */
"32 32 3 1",
"  c black",
". c gray100",
"X c None",
/* pixels */
"     XXXXXXXXXXXXXXXXXXXXXXXXXXX",
" ... XXXXXXXXXXXXXXXXXXXXXXXXXXX",
" .. XXXXXXXXXXXXXXXXXXXXXXXXXXXX",
" . . XXXXXXXXXXXXXXXXXXXXXXXXXXX",
"  X . XXXXXXXXXXXXXXXXXXXXXXXXXX",
"XXXX  XXXXXXXXXXXXXXXXXXXXXXXXXX",
"XXXXXXXXXXXXXXXXXXXXXXXXXXXXXXXX",
"XXXXXXXXXXXXXXXXXXXXXXXXXXXXXXXX",
"XXXXXXXXXXXXXXXXXXXXXXXXXXXXXXXX",
"XXXXXXXXXXXXXXXXXX XXXXXXXXXXXXX",
"XXXXXXXXXXXXX XXXX  XXXXXXXXXXXX",
"XXXXXXXXXXXX  XXXX  XXXXXXXXXXXX",
"XXXXXXXXXXXX . XXX  XXXXXXXXXXXX",
"XXXXXXXXXXXX . XX   XXXXXXXXXXXX",
"XXXXXXXXXXXX . XX . XXXXXXXXXXXX",
"XXXXXXXXXXXX .  X .XXXXXXXXXXXXX",
"XXXXXXXXXXXX  .   .XXXXXXXXXXXXX",
"XX  XXXXXXXXX          XXXXXXXXX",
"XX .  XXXXX  .........  XXXXXXXX",
"XX ... XXX  ...........  XXXXXXX",
"XX ....    .........  ... XXXXXX",
"XX ..... ..........    ..  XXXXX",
"XXX ...............    ... XXXXX",
"XXX ................  .... XXXXX",
"XXX ......................  XXXX",
"XXX .... .................  XXXX",
"XXX .      ............  . XXXXX",
"XXX   XXXX        ..    XXXXXXXX",
"XXXXXXXXXXXXXX .. .. XXXXXXXXXXX",
"XXXXXXXXXXXXXX .. . XXXXXXXXXXXX",
"XXXXXXXXXXXXXX .   XXXXXXXXXXXXX",
"XXXXXXXXXXXXXX . XXXXXXXXXXXXXXX"
};
