/* XPM */
static char *MW_ZROTA[] = {
/* columns rows colors chars-per-pixel */
"32 32 3 1",
"  c black",
". c gray100",
"X c None",
/* pixels */
"XXXXXXXXXXXXXXXXXXXXXXXXXXXXXXXX",
"XXXXXXXXXXXX.......XXXXXXXXXXXXX",
"XXXXXXXXX.............XXXXXXXXXX",
"XXXXXXX.....       .....XXXXXXXX",
"XXXXXX...    XXXXX    ...XXXXXXX",
"XXXXX...  XXXXXXXXXXX  ...XXXXXX",
"XXXX..   XXXXXXXXXXXXX   ..XXXXX",
"XXX..  XXXXXXXXXXXXXXXXX  ..XXXX",
"XX... XXXXXXXXXXXXXXXXXXX ...XXX",
"XX..  XXXXXXXXXXXXXXXXXXX  ..XXX",
"X..  XXXXXXXXXXXXXXXXXXXXX  ..XX",
"X.. XXXXXXXXXXXXXXXXXXXXXXX ..XX",
"X.. XXXXXXXXXXXXXXXXXXXXXXX ..XX",
"..  XXXXXXXXXXXXXXXXXXXXXXX  ..X",
".. XXXXXXXXXX     XXXXXXXXXX ..X",
".. XXXXXXXXXX ... XXXXXXXXXX ..X",
".. XXXXXXXXXX ... XXXXXXXXXX ..X",
".. XXXXXXXXXX ... XXXXXXXXXX ..X",
".. XXXXXXXXXX     XXXXXXXXXX ..X",
"..  XXXXXXXXXXXXXXXXXXXXXXX  ..X",
"X.. XXXXXXXXXXXXXXXXXXXXXXX ..XX",
"X.. XXXXXXXXXXXXXXXXXXXXXXX ..XX",
"X..  XXXXXXXXXXXXXXXXXXXXX  ..XX",
"XX..  X   XXXXXXXXXXX   X  ..XXX",
"XX... X . XXXXXXXXXXX . X ...XXX",
"XXX..  .. XXXXXXXXXXX ..  ..XXXX",
"XXXX..... XXXXXXXXXXX .....XXXXX",
"XXX  .... XXXXXXXXXXX ....  XXXX",
"XX  ..... XXXXXXXXXXX .....  XXX",
"XX ...... XXXXXXXXXXX ...... XXX",
"XX        XXXXXXXXXXX        XXX",
"XXXXXXXXXXXXXXXXXXXXXXXXXXXXXXXX"
};
