/* XPM */
static char *pbrush[] = {
/* columns rows colors chars-per-pixel */
"32 32 3 1",
"  c black",
". c gray100",
"X c None",
/* pixels */
"XXXXXXXXXXXXXXXXXXXXXXXXXXXXXXXX",
"XXXXXXXXXXXXXXXXXXXXXXXXXXXXXXXX",
"XXXXXXXXXXXXXXXXXXXXXXXXXXXXXXXX",
"XXXXXXXXXXXXXXXXXXXXXXXXXXXXXXXX",
"XXXXXXXXXXXXXXXXXXXXXXXXXXXXXXXX",
"XXXXXXXXXXXXXXXXXXXXXXXXXXXXXXXX",
"XXXXXXXXXXXXX  XXXXXXXXXXXXXXXXX",
"XXXXXXXXXXXX .  XXXXXXXXXXXXXXXX",
"XXXXXXXXXXXX .  XXXXXXXXXXXXXXXX",
"XXXXXXXXXXXX .  XXXXXXXXXXXXXXXX",
"XXXXXXXXXXXX .  XXXXXXXXXXXXXXXX",
"XXXXXXXXXXXX .  XXXXXXXXXXXXXXXX",
"XXXXXXXXXXXX .  XXXXXXXXXXXXXXXX",
"XXXXXXXXXXXX .  XXXXXXXXXXXXXXXX",
"XXXXXXXXXXX  ..  XXXXXXXXXXXXXXX",
"XXXXXXXXX  ......  XXXXXXXXXXXXX",
"XXXXXXXX .......... XXXXXXXXXXXX",
"XXXXXXXX .......... XXXXXXXXXXXX",
"XXXXXXXX            XXXXXXXXXXXX",
"XXXXXXXX .......... XXXXXXXXXXXX",
"XXXXXXXX .......... XXXXXXXXXXXX",
"XXXXXXXX . . . . .  XXXXXXXXXXXX",
"XXXXXXXX . . . . .  XXXXXXXXXXXX",
"XXXXXXXX . . . . .  XXXXXXXXXXXX",
"XXXXXXX            XXXXXXXXXXXXX",
"XXXXXXXXXXXXXXXXXXXXXXXXXXXXXXXX",
"XXXXXXXXXXXXXXXXXXXXXXXXXXXXXXXX",
"XXXXXXXXXXXXXXXXXXXXXXXXXXXXXXXX",
"XXXXXXXXXXXXXXXXXXXXXXXXXXXXXXXX",
"XXXXXXXXXXXXXXXXXXXXXXXXXXXXXXXX",
"XXXXXXXXXXXXXXXXXXXXXXXXXXXXXXXX",
"XXXXXXXXXXXXXXXXXXXXXXXXXXXXXXXX"
};
