/* XPM */
static const char *pencil[] = {
/* columns rows colors chars-per-pixel */
"32 32 3 1",
"  c black",
". c gray100",
"X c None",
/* pixels */
"XXXXXXXXXXXXX  XXXXXXXXXXXXXXXXX",
"XXXXXXXXXXXX .. XXXXXXXXXXXXXXXX",
"XXXXXXXXXXX .... XXXXXXXXXXXXXXX",
"XXXXXXXXXX . ... XXXXXXXXXXXXXXX",
"XXXXXXXXX ... . XXXXXXXXXXXXXXXX",
"XXXXXXXX ... . XXXXXXXXXXXXXXXXX",
"XXXXXXX ... . XXXXXXXXXXXXXXXXXX",
"XXXXXX ... . XXXXXXXXXXXXXXXXXXX",
"XXXXX ... . XXXXXXXXXXXXXXXXXXXX",
"XXXX ... . XXXXXXXXXXXXXXXXXXXXX",
"XXX ... . XXXXXXXXXXXXXXXXXXXXXX",
"XX ... . XXXXXXXXXXXXXXXXXXXXXXX",
"X ... . XXXXXXXXXXXXXXXXXXXXXXXX",
"  .. . XXXXXXXXXXXXXXXXXXXXXXXXX",
"   .. XXXXXXXXXXXXXXXXXXXXXXXXXX",
"     XXXXXXXXXXXXXXXXXXXXXXXXXXX",
"X   XXXXXXXXXXXXXXXXXXXXXXXXXXXX",
"XXXXXXXXXXXXXXXXXXXXXXXXXXXXXXXX",
"XXXXXXXXXXXXXXXXXXXXXXXXXXXXXXXX",
"XXXXXXXXXXXXXXXXXXXXXXXXXXXXXXXX",
"XXXXXXXXXXXXXXXXXXXXXXXXXXXXXXXX",
"XXXXXXXXXXXXXXXXXXXXXXXXXXXXXXXX",
"XXXXXXXXXXXXXXXXXXXXXXXXXXXXXXXX",
"XXXXXXXXXXXXXXXXXXXXXXXXXXXXXXXX",
"XXXXXXXXXXXXXXXXXXXXXXXXXXXXXXXX",
"XXXXXXXXXXXXXXXXXXXXXXXXXXXXXXXX",
"XXXXXXXXXXXXXXXXXXXXXXXXXXXXXXXX",
"XXXXXXXXXXXXXXXXXXXXXXXXXXXXXXXX",
"XXXXXXXXXXXXXXXXXXXXXXXXXXXXXXXX",
"XXXXXXXXXXXXXXXXXXXXXXXXXXXXXXXX",
"XXXXXXXXXXXXXXXXXXXXXXXXXXXXXXXX",
"XXXXXXXXXXXXXXXXXXXXXXXXXXXXXXXX"
};
