/* XPM */
static char *pntleft[] = {
/* columns rows colors chars-per-pixel */
"32 32 3 1",
"  c black",
". c gray100",
"X c None",
/* pixels */
"XXXXXXXXXXXXXXXXXXXXXXXXXXXXXXXX",
"XXXXXXXXXXXXXXXXXXXXXXXXXXXXXXXX",
"XXXXXXXXXXXXXXXXXXXXXXXXXXXXXXXX",
"XXXXXXXXXXXXXXXXXXXXXXXXXXXXXXXX",
"XXXXXXXXXXXXXXXXXXXXXXXXXXXXXXXX",
"XXXXXXXXXXXXXXXXXXXXXXXXXXXXXXXX",
"XXXXXXXXXXXXXXXXXXXXXXXXXXXXXXXX",
"XXXXXXXXXXXXXXXXXXXXXXXXXXXXXXXX",
"XXXXXXXXXX           XXXXXXXXXXX",
"XXXXX     ...........  XXXXXX   ",
"X    ....... ..........  XX     ",
" ........   .............       ",
"          ................      ",
"X       ......... ........      ",
"XXXXXXX .....    .........      ",
"XXXXXXXX     ... .........      ",
"XXXXXXXX ......  .........      ",
"XXXXXXXX ....   . ........      ",
"XXXXXXXXX     ..  ........      ",
"XXXXXXXXXX ...   . ......       ",
"XXXXXXXXXXX    ..  ....         ",
"XXXXXXXXXXX ...                 ",
"XXXXXXXXXXXX             XX     ",
"XXXXXXXXXXXXXXXX      XXXXXXX   ",
"XXXXXXXXXXXXXXXXXXXXXXXXXXXXXXXX",
"XXXXXXXXXXXXXXXXXXXXXXXXXXXXXXXX",
"XXXXXXXXXXXXXXXXXXXXXXXXXXXXXXXX",
"XXXXXXXXXXXXXXXXXXXXXXXXXXXXXXXX",
"XXXXXXXXXXXXXXXXXXXXXXXXXXXXXXXX",
"XXXXXXXXXXXXXXXXXXXXXXXXXXXXXXXX",
"XXXXXXXXXXXXXXXXXXXXXXXXXXXXXXXX",
"XXXXXXXXXXXXXXXXXXXXXXXXXXXXXXXX"
};
