/* XPM */
static const char *query[] = {
/* columns rows colors chars-per-pixel */
"32 32 3 1",
"  c black",
". c gray100",
"X c None",
/* pixels */
"   XXXXXXXXXX......XXXXXXXXXXXXX",
" .  XXXXXXXX.      .XXXXXXXXXXXX",
" ..  XXXXXX.        .XXXXXXXXXXX",
" ...  XXXX.          .XXXXXXXXXX",
" ....  XX.            .XXXXXXXXX",
" .....  .     ...      .XXXXXXXX",
" ......      .XXX.     .XXXXXXXX",
" .......     .XXX.     .XXXXXXXX",
" .......     .XXX.     .XXXXXXXX",
" .......     .XXX.     .XXXXXXXX",
" .......     .XXX.     .XXXXXXXX",
" ........... XXX.     .XXXXXXXXX",
" ......      XX.     .XXXXXXXXXX",
" ..  ..  XXXXX.     .XXXXXXXXXXX",
" .   ... XXXX.     .XXXXXXXXXXXX",
"   X  ..  XX.     .XXXXXXXXXXXXX",
"  XXX ... XX.     .XXXXXXXXXXXXX",
"XXXXXX ..  X.     .XXXXXXXXXXXXX",
"XXXXXX ... X.     .XXXXXXXXXXXXX",
"XXXXXXX ..  .     .XXXXXXXXXXXXX",
"XXXXXXX ... X.....XXXXXXXXXXXXXX",
"XXXXXXX     XXXXXXXXXXXXXXXXXXXX",
"XXXXXXXXXXXXX.....XXXXXXXXXXXXXX",
"XXXXXXXXXXXX.     .XXXXXXXXXXXXX",
"XXXXXXXXXXXX.     .XXXXXXXXXXXXX",
"XXXXXXXXXXXX.     .XXXXXXXXXXXXX",
"XXXXXXXXXXXX.     .XXXXXXXXXXXXX",
"XXXXXXXXXXXXX.....XXXXXXXXXXXXXX",
"XXXXXXXXXXXXXXXXXXXXXXXXXXXXXXXX",
"XXXXXXXXXXXXXXXXXXXXXXXXXXXXXXXX",
"XXXXXXXXXXXXXXXXXXXXXXXXXXXXXXXX",
"XXXXXXXXXXXXXXXXXXXXXXXXXXXXXXXX"
};
