/* XPM */
static const char *size[] = {
/* columns rows colors chars-per-pixel */
"32 32 3 1",
"  c black",
". c gray100",
"X c None",
/* pixels */
"XXXXXXXXXXXXXXXXXXXXXXXXXXXXXXXX",
"XXXXXXXXXXXXXXXXXXXXXXXXXXXXXXXX",
"XXXXXXXXXXXXXXXXXXXXXXXXXXXXXXXX",
"XXXXXXXXXXXXXXXXXXXXXXXXXXXXXXXX",
"XXXXXXXXXXXXXX  XXXXXXXXXXXXXXXX",
"XXXXXXXXXXXXX .. XXXXXXXXXXXXXXX",
"XXXXXXXXXXXX .... XXXXXXXXXXXXXX",
"XXXXXXXXXXX ...... XXXXXXXXXXXXX",
"XXXXXXXXXX ........ XXXXXXXXXXXX",
"XXXXXXXXXX    ..    XXXXXXXXXXXX",
"XXXXXXXXXXXXX .. XXXXXXXXXXXXXXX",
"XXXXXXX  XXXX .. XXXX  XXXXXXXXX",
"XXXXXX . XXXX .. XXXX . XXXXXXXX",
"XXXXX .. XXXX .. XXXX .. XXXXXXX",
"XXXX ...      ..      ... XXXXXX",
"XXX ...................... XXXXX",
"XXX ...................... XXXXX",
"XXXX ...      ..      ... XXXXXX",
"XXXXX .. XXXX .. XXXX .. XXXXXXX",
"XXXXXX . XXXX .. XXXX . XXXXXXXX",
"XXXXXXX  XXXX .. XXXX  XXXXXXXXX",
"XXXXXXXXXXXXX .. XXXXXXXXXXXXXXX",
"XXXXXXXXXX    ..    XXXXXXXXXXXX",
"XXXXXXXXXX ........ XXXXXXXXXXXX",
"XXXXXXXXXXX ...... XXXXXXXXXXXXX",
"XXXXXXXXXXXX .... XXXXXXXXXXXXXX",
"XXXXXXXXXXXXX .. XXXXXXXXXXXXXXX",
"XXXXXXXXXXXXXX  XXXXXXXXXXXXXXXX",
"XXXXXXXXXXXXXXXXXXXXXXXXXXXXXXXX",
"XXXXXXXXXXXXXXXXXXXXXXXXXXXXXXXX",
"XXXXXXXXXXXXXXXXXXXXXXXXXXXXXXXX",
"XXXXXXXXXXXXXXXXXXXXXXXXXXXXXXXX"
};
