/* XPM */
static const char * slabDrag[] = {
"32 32 11 1",
" 	c None",
".	c #000000",
"+	c #FFFFFF",
"@	c #CACACA",
"#	c #777777",
"$	c #FEFEFE",
"%	c #E2E2E2",
"&	c #E7E7E7",
"*	c #F9F9F9",
"=	c #ECECEC",
"-	c #FCFCFC",
"       .+@#          .+@#       ",
"       .+@#          .+@#       ",
"       .+@#          .+@#       ",
"       .$@#          .+@#       ",
"       .+@#          .+@#       ",
"       .+@#          .+@#       ",
"       .+@#      #   .+@#       ",
"       .+@#     .@#  .+@#  #@#  ",
"       .+@#    .+@####+@####%@# ",
"       .+@#   .++@@@@@+@@@@@&*@#",
"       .+@#   ++$+++++$++++++++@",
"       .+@#   .++@####+@###.=-@#",
"       .+@#    .+@#  .+@#  .&@# ",
"       .+@#     .@#  .+@#  #@#  ",
"       .+@#      #   .+@#       ",
"       .+@#          .+@#       ",
"       .+@#          .+@#       ",
"   #   .+@#          .+@#       ",
"  .@#  .+@#  #@#     .+@#       ",
" .+@#  .+@#  .&@#    .+@#       ",
".++@####+@###.=-@#   .+@#       ",
"++$+++++$++++++++@   .+@#       ",
".++@@@@@+@@@@@&*@#   .+@#       ",
" .+@####+@####%@#    .+@#       ",
"  .@#  .+@#  #@#     .+@#       ",
"   #   .+@#          .+@#       ",
"       .+@#          .+@#       ",
"       .+@#          .+@#       ",
"       .+@#          .$@#       ",
"       .+@#          .+@#       ",
"       .+@#          .+@#       ",
"       .+@#          .+@#       "};
