/* XPM */
static char *watch1[] = {
/* columns rows colors chars-per-pixel */
"32 32 3 1",
"  c black",
". c gray100",
"X c None",
/* pixels */
"XXXXXX .....        ..... XXXXXX",
"XXXXXX ..   ........   .. XXXXXX",
"XXXXXX   ..............   XXXXXX",
"XXXXXX ......... ........ XXXXXX",
"XXXXX ... ...... ..... ... XXXXX",
"XXXX .......        ....... XXXX",
"XXX ......  .... ...  ...... XXX",
"XX ...... ...... ..... ...... XX",
"XX ..... ....... ...... ..... XX",
"X .. .. ........ ....... .. .. X",
"X .... ......... ........ .... X",
"X .... ......... ........ .... X",
" .... .......... ......... .... ",
" .... .......... ......... .... ",
" .... .......... ......... .... ",
" .. . .......... ......... . .. ",
" .... .................... .... ",
" .... .................... .... ",
" .... .................... .... ",
" .... ........    ........ .... ",
"X .... ...... .... ...... .... X",
"X .... ...... .... ...... .... X",
"X ..... ...... .. ...... ..... X",
"XX .. .. .... .... .... .. .. XX",
"XX ...... ............ ...... XX",
"XXX ......  ........  ...... XXX",
"XXXX .......        ....... XXXX",
"XXXXX ... ............ ... XXXXX",
"XXXXXX ......... ........ XXXXXX",
"XXXXXX   ..............   XXXXXX",
"XXXXXX ..   ........   .. XXXXXX",
"XXXXXX .....        ..... XXXXXX"
};
