/* XPM */
static const char *ZCURSOR[] = {
/* columns rows colors chars-per-pixel */
"32 32 3 1",
"  c black",
". c gray100",
"X c None",
/* pixels */
"XXXXXXXXXXXXXXXXXXXXXXXXXXXXXXXX",
"XXXXXXXXXXXXXXXXXXXXXXXXXXXXXXXX",
"XXXXXXXXX                 XXXXXX",
"XXXXXXXXX ............... XXXXXX",
"XXXXXXXXX ............... XXXXXX",
"XXXXXXXXX             ... XXXXXX",
"XXXXXXXXXXXXXXXXXXXXX .. XXXXXXX",
"XXXXXXXXXXXXXXXXXXXX .. XXXXXXXX",
"XXXXXXXXXXXXXXXXXXX .. XXXXXXXXX",
"XXXXXXXXXXXXXX     .. XXXXXXXXXX",
"XXXXXXXXXXXXX ...... XXXXXXXXXXX",
"XXXXXXXXXXXX ...... XXXXXXXXXXXX",
"XXXXXXXXXXX ..XXX.. XXXXXXXXXXXX",
"XXXXXXXXXX ..XXXXX.. XXXXXXXXXXX",
"XXXXXXXXX ..XXXXXXX.. XXXXXXXXXX",
"XXXXXXXXX ..XXXXXXX.. XXXXXXXXXX",
"XXXXXXXXX ..XXXXXXX.. XXXXXXXXXX",
"XXXXXXXXXX ..XXXXX.. XXXXXXXXXXX",
"XXXXXXXXXXX ..XXX.. XXXXXXXXXXXX",
"XXXXXXXXXXX ...... XXXXXXXXXXXXX",
"XXXXXXXXXX ...... XXXXXXXXXXXXXX",
"XXXXXXXXX ..     XXXXXXXXXXXXXXX",
"XXXXXXXX .. XXXXXXXXXXXXXXXXXXXX",
"XXXXXXX .. XXXXXXXXXXXXXXXXXXXXX",
"XXXXXX ...              XXXXXXXX",
"XXXXXX ................ XXXXXXXX",
"XXXXXX ................ XXXXXXXX",
"XXXXXX                  XXXXXXXX",
"XXXXXXXXXXXXXXXXXXXXXXXXXXXXXXXX",
"XXXXXXXXXXXXXXXXXXXXXXXXXXXXXXXX",
"XXXXXXXXXXXXXXXXXXXXXXXXXXXXXXXX",
"XXXXXXXXXXXXXXXXXXXXXXXXXXXXXXXX"
};
